<svg xmlns="http://www.w3.org/2000/svg" width="135" height="135" viewBox="0 0 135 135">
  <g id="smart-home" transform="translate(0 -0.001)">
    <path id="Tracé_58" data-name="Tracé 58" d="M58.185,46.716a1.977,1.977,0,0,0,2.8-.068A334.567,334.567,0,0,1,109.891,4.392c2.988,2.1,5.988,4.29,8.935,6.522a1.978,1.978,0,1,0,2.388-3.153c-3.36-2.545-6.79-5.037-10.193-7.406a1.978,1.978,0,0,0-2.259,0A338.09,338.09,0,0,0,58.117,43.921a1.977,1.977,0,0,0,.068,2.8Z" transform="translate(-42.391)" fill="#4aa9fc"/>
    <path id="Tracé_59" data-name="Tracé 59" d="M134.594,91.309A259.026,259.026,0,0,0,115.48,69.931c.3-14.584-.668-26.993-.678-27.119a1.977,1.977,0,0,0-1.7-1.8A63.286,63.286,0,0,0,98.924,41a1.977,1.977,0,0,0-1.759,1.81c0,.045-.293,3.729-.507,9.381-3.372-2.946-6.944-5.948-10.7-8.965a1.978,1.978,0,0,0-2.475,3.085,319.909,319.909,0,0,1,47.056,46.237,24.535,24.535,0,0,1-5.875,5.546c-5.4-6.131-30.769-34.3-56.015-52.22a1.977,1.977,0,0,0-2.289,0C41.109,63.8,15.744,91.967,10.341,98.1A24.547,24.547,0,0,1,4.464,92.55c1.308-1.633,4-4.906,7.912-9.274a1.978,1.978,0,1,0-2.945-2.64C3.616,87.122.535,91.141.406,91.309a1.977,1.977,0,0,0-.074,2.3c.17.255,4.227,6.269,9.625,8.774a1.978,1.978,0,0,0,2.333-.505c.054-.062,1.123-1.3,3.013-3.405-.521,11.885-.92,34.2.186,60.252-5.11-.458-7.986-.806-8.069-.817a1.978,1.978,0,0,0-.484,3.926A553.282,553.282,0,0,0,67.5,164.909a553.545,553.545,0,0,0,60.563-3.077,1.977,1.977,0,1,0-.484-3.925c-.084.01-2.991.363-8.155.825.15-3.534.278-7.1.381-10.628a1.978,1.978,0,1,0-3.953-.115c-.107,3.68-.241,7.4-.4,11.081-10.647.861-27.591,1.884-47.951,1.884-20.408,0-37.393-1.03-48.038-1.892-1.541-35.684-.177-61.434.042-65.193,9.989-10.784,28.96-30.2,48-43.946,18.988,13.709,37.91,33.064,47.919,43.864.2,3.459,1.06,20.341.652,44.61a1.978,1.978,0,0,0,1.944,2.01h.034a1.978,1.978,0,0,0,1.977-1.944c.311-18.507-.113-32.76-.424-40.1,1.949,2.167,3.053,3.447,3.108,3.511a1.977,1.977,0,0,0,2.332.505c5.4-2.505,9.455-8.52,9.625-8.774a1.978,1.978,0,0,0-.074-2.3ZM111.576,66.028c-3.36-3.306-7.058-6.808-11.073-10.424.135-4.885.355-8.755.489-10.824a63.509,63.509,0,0,1,9.98-.013C111.191,48.138,111.638,56.34,111.576,66.028Z" transform="translate(0 -29.908)" fill="#4aa9fc"/>
    <path id="Tracé_60" data-name="Tracé 60" d="M226.591,260.781c-3.369-.209-6.86-.332-10.376-.366h-.02a1.977,1.977,0,0,0-.019,3.955c2.842.028,5.666.115,8.419.259a212.365,212.365,0,0,1-.025,21.72,211.391,211.391,0,0,1-21.682.025,212.3,212.3,0,0,1,.025-21.721c1.22-.064,2.45-.118,3.675-.161a1.977,1.977,0,1,0-.139-3.952c-1.848.065-3.709.154-5.531.264a1.978,1.978,0,0,0-1.854,1.855,215.5,215.5,0,0,0-.023,25.71,1.978,1.978,0,0,0,1.852,1.852c4.39.272,8.6.374,12.443.374,5.217,0,9.775-.188,13.23-.4a1.978,1.978,0,0,0,1.854-1.855,215.545,215.545,0,0,0,.024-25.71A1.978,1.978,0,0,0,226.591,260.781Z" transform="translate(-146.284 -191.75)" fill="#4aa9fc"/>
    <path id="Tracé_61" data-name="Tracé 61" d="M179.377,203.914A5.937,5.937,0,1,0,173.784,196h-3.01c-.2-3.539-.516-7.209-.977-10.931a1.978,1.978,0,0,0-1.719-1.719c-3.7-.46-7.35-.774-10.87-.976v-2.981a5.931,5.931,0,1,0-3.955,0v2.8c-5.423-.2-10.446-.142-14.76.019v-2.815a5.931,5.931,0,1,0-3.955,0v3c-6.679.378-10.889.947-10.983.959a1.977,1.977,0,0,0-1.688,1.689c-.013.093-.578,4.293-.956,10.958h-2.95a5.937,5.937,0,1,0,0,3.955h2.764c-.162,4.32-.216,9.352-.022,14.788h-2.742a5.937,5.937,0,1,0,0,3.955h2.925c.2,3.539.516,7.209.977,10.931a1.978,1.978,0,0,0,1.719,1.719c3.731.464,7.409.779,10.955.981V235.3a5.931,5.931,0,1,0,3.955,0V232.51c2.412.086,4.745.122,6.971.122,2.781,0,5.395-.057,7.789-.148V235.3a5.931,5.931,0,1,0,3.955,0V232.3c6.629-.378,10.8-.942,10.9-.955a1.977,1.977,0,0,0,1.688-1.689c.013-.093.578-4.293.956-10.958h3.035a5.937,5.937,0,1,0,0-3.955h-2.849c.162-4.32.216-9.352.022-14.788h2.827a5.941,5.941,0,0,0,5.592,3.96Zm0-7.919a1.982,1.982,0,1,1-1.976,1.982A1.981,1.981,0,0,1,179.377,195.995Zm-67.007,3.964a1.982,1.982,0,1,1,1.976-1.982A1.982,1.982,0,0,1,112.37,199.959Zm0,18.742a1.982,1.982,0,1,1,1.976-1.982A1.981,1.981,0,0,1,112.37,218.7Zm42.861-46.889a1.982,1.982,0,1,1-1.976,1.982A1.982,1.982,0,0,1,155.23,171.812Zm-18.714,0a1.982,1.982,0,1,1-1.976,1.982A1.982,1.982,0,0,1,136.516,171.812Zm0,71.072a1.982,1.982,0,1,1,1.976-1.982A1.981,1.981,0,0,1,136.516,242.884Zm18.714,0a1.982,1.982,0,1,1,1.976-1.982A1.981,1.981,0,0,1,155.23,242.884Zm10.826-15.276a191.856,191.856,0,0,1-40.449,0,193.029,193.029,0,0,1,0-40.517,191.9,191.9,0,0,1,40.449,0A193.041,193.041,0,0,1,166.056,227.607Zm13.321-12.871a1.982,1.982,0,1,1-1.976,1.982A1.982,1.982,0,0,1,179.377,214.737Z" transform="translate(-78.373 -123.596)" fill="#4aa9fc"/>
    <circle id="Ellipse_54" data-name="Ellipse 54" cx="1.978" cy="1.978" r="1.978" transform="translate(60.863 77.419)" fill="#4aa9fc"/>
    <ellipse id="Ellipse_55" data-name="Ellipse 55" cx="1.978" cy="1.978" rx="1.978" ry="1.978" transform="translate(60.84 86.147) rotate(-0.516)" fill="#4aa9fc"/>
    <ellipse id="Ellipse_56" data-name="Ellipse 56" cx="1.978" cy="1.978" rx="1.978" ry="1.978" transform="translate(70.046 81.318) rotate(-89.484)" fill="#4aa9fc"/>
    <ellipse id="Ellipse_57" data-name="Ellipse 57" cx="1.978" cy="1.978" rx="1.978" ry="1.978" transform="translate(70.046 90.016) rotate(-89.484)" fill="#4aa9fc"/>
  </g>
</svg>
