<svg xmlns="http://www.w3.org/2000/svg" width="180.203" height="180.203" viewBox="0 0 180.203 180.203">
  <g id="integration" transform="translate(0.002 0.002)">
    <path id="Tracé_62" data-name="Tracé 62" d="M188.45,466.018a2.64,2.64,0,1,0-5.273.254c.2,4.075.414,8.054.648,11.824a2.64,2.64,0,0,0,2.632,2.476q.082,0,.166-.005a2.64,2.64,0,0,0,2.471-2.8C188.862,474.024,188.645,470.07,188.45,466.018Z" transform="translate(-118.706 -300.373)" fill="#4aa9fc"/>
    <path id="Tracé_63" data-name="Tracé 63" d="M167.632,158.72a2.64,2.64,0,0,0-.274-5.273c-3.649.19-7.28.426-10.793.7a2.64,2.64,0,0,0-2.426,2.426,418.509,418.509,0,0,0-.031,65.215,2.64,2.64,0,0,0,2.416,2.417c11.247.917,22.032,1.262,31.889,1.262,13.123,0,24.6-.611,33.325-1.293a2.64,2.64,0,0,0,2.426-2.426,418.513,418.513,0,0,0,.031-65.215,2.64,2.64,0,0,0-2.416-2.417,401.774,401.774,0,0,0-40.256-1.175,2.64,2.64,0,0,0,.1,5.279c12.87-.252,25.468.08,37.483.983a413.962,413.962,0,0,1-.038,59.878,414.022,414.022,0,0,1-59.878.038,413.957,413.957,0,0,1,.038-59.877C161.988,159.041,164.8,158.866,167.632,158.72Z" transform="translate(-99.051 -99.061)" fill="#4aa9fc"/>
    <path id="Tracé_64" data-name="Tracé 64" d="M2.638,172.6c.047,0,.095,0,.143,0,.107-.006,10.843-.567,24.2-.517h.01A2.64,2.64,0,0,0,27,166.8c-13.516-.045-24.393.519-24.5.524a2.64,2.64,0,0,0,.138,5.276Z" transform="translate(-0.002 -108.094)" fill="#4aa9fc"/>
    <path id="Tracé_65" data-name="Tracé 65" d="M177.7,116.22c-.191-.01-16.647-.867-34.471-.368.366-6.176.661-13.353.752-21.239a2.64,2.64,0,0,0-2.609-2.67h-.031a2.64,2.64,0,0,0-2.639,2.609c-.093,8.015-.4,15.281-.773,21.489q-1.794.079-3.583.179a2.64,2.64,0,0,0,.146,5.275q.075,0,.151,0,1.462-.082,2.932-.15c-.514,7.03-1.072,12.2-1.385,14.849-9.206,1.082-48.807,5.1-92.176-.006-.764-6.493-1.323-12.9-1.719-19.136,1.3.037,2.527.067,3.685.061a2.64,2.64,0,0,0-.018-5.279h-.019c-1.181.007-2.5-.03-3.9-.069H42c-.649-13.01-.611-25.12-.272-35.479q1.919.082,3.831.189.076,0,.151,0a2.64,2.64,0,0,0,.146-5.275Q43.9,71.088,41.927,71c.59-13.272,1.612-23,2.083-27,9.21-1.082,48.809-5.1,92.175.006.731,6.207,1.3,12.6,1.722,19.136-1.3-.037-2.53-.067-3.687-.061a2.64,2.64,0,0,0,.018,5.279h.019c1.181-.007,2.5.03,3.9.069h.055q.332,6.571.458,13.3a2.64,2.64,0,0,0,5.279-.1q-.119-6.636-.449-13.128c6.284-.077,13.3-1,18.162-5.757,3.565-3.488,5.514-8.635,5.821-15.31a7.915,7.915,0,0,0-2.627-15.383h-.058A7.913,7.913,0,0,0,162.2,47.44c-.261,5.226-1.653,9.017-4.235,11.544-3.6,3.525-9.3,4.212-14.767,4.255-.472-7.507-1.142-14.84-2.021-21.922a2.64,2.64,0,0,0-2.294-2.295c-7.728-.959-15.35-1.626-22.725-2.07-.378-14.793-1.006-26.815-1.478-34.44a2.64,2.64,0,0,0-5.27.327c.465,7.51,1.082,19.307,1.459,33.83-15.853-.744-30.339-.489-41.944.074.377-14.574,1-26.41,1.463-33.941a2.64,2.64,0,0,0-5.27-.327c-.474,7.648-1.1,19.708-1.482,34.555C50,37.852,41.478,39,41.281,39.027a2.639,2.639,0,0,0-2.253,2.254c-.032.229-1.587,11.765-2.374,29.541-17.7-.48-33.966.366-34.156.376a2.64,2.64,0,1,0,.281,5.272c.188-.01,16.221-.844,33.672-.373-.34,10.4-.38,22.545.258,35.587-6.285.077-13.3,1-18.165,5.757-3.565,3.488-5.514,8.635-5.821,15.31a7.915,7.915,0,0,0,2.627,15.383h.058A7.913,7.913,0,0,0,18,132.758c.261-5.226,1.653-9.017,4.235-11.544,3.6-3.525,9.3-4.212,14.766-4.255.444,7.124,1.1,14.474,2.021,21.922a2.64,2.64,0,0,0,2.295,2.295c7.588.941,15.072,1.6,22.32,2.046.092,3.587.2,7.2.332,10.784a2.639,2.639,0,0,0,2.636,2.544l.1,0a2.64,2.64,0,0,0,2.543-2.733c-.124-3.422-.23-6.875-.319-10.3,7.107.341,13.946.481,20.377.481,7.886,0,15.157-.21,21.566-.515-.377,14.547-.995,26.365-1.461,33.883a2.639,2.639,0,0,0,2.471,2.8q.083.005.166.005a2.64,2.64,0,0,0,2.632-2.476c.473-7.635,1.1-19.675,1.479-34.493,13.875-.824,22.561-2,22.76-2.023a2.639,2.639,0,0,0,2.253-2.254c.015-.109.926-6.8,1.713-17.775,17.777-.523,34.346.338,34.537.348a2.639,2.639,0,1,0,.281-5.271ZM164.83,37.345h.019a2.638,2.638,0,0,1,.017,5.277s-.013,0-.019,0a2.638,2.638,0,0,1-.017-5.277ZM15.37,142.855h-.019a2.638,2.638,0,0,1-.017-5.277h0a2.7,2.7,0,0,1,1.878.761A2.615,2.615,0,0,1,18,140.2a2.645,2.645,0,0,1-2.628,2.657Z" transform="translate(0 0)" fill="#4aa9fc"/>
    <path id="Tracé_66" data-name="Tracé 66" d="M430.441,294.719a2.64,2.64,0,0,0,.01,5.279h.01c13.355-.048,24.094.511,24.2.517.048,0,.1,0,.143,0a2.64,2.64,0,0,0,.138-5.276C454.835,295.237,443.96,294.67,430.441,294.719Z" transform="translate(-277.241 -190.99)" fill="#4aa9fc"/>
    <path id="Tracé_67" data-name="Tracé 67" d="M250.3,206.506a2.637,2.637,0,0,0-2.87,2.387,107.233,107.233,0,0,0,0,15.223,2.639,2.639,0,0,0,2.392,2.43c.212.02,3.608.323,7.992.323,2.266,0,4.8-.081,7.288-.324a2.64,2.64,0,0,0-.513-5.254,84.336,84.336,0,0,1-12.025.152,94.838,94.838,0,0,1,.127-12.067A2.64,2.64,0,0,0,250.3,206.506Z" transform="translate(-160.165 -133.818)" fill="#4aa9fc"/>
    <ellipse id="Ellipse_58" data-name="Ellipse 58" cx="2.64" cy="2.64" rx="2.64" ry="2.64" transform="translate(87.213 13.743) rotate(-89.484)" fill="#4aa9fc"/>
    <ellipse id="Ellipse_59" data-name="Ellipse 59" cx="2.64" cy="2.64" rx="2.64" ry="2.64" transform="translate(87.213 29.571) rotate(-89.484)" fill="#4aa9fc"/>
    <ellipse id="Ellipse_60" data-name="Ellipse 60" cx="2.64" cy="2.64" rx="2.64" ry="2.64" transform="translate(87.293 150.59) rotate(-0.516)" fill="#4aa9fc"/>
    <ellipse id="Ellipse_61" data-name="Ellipse 61" cx="2.64" cy="2.64" rx="2.64" ry="2.64" transform="translate(87.22 166.464) rotate(-0.516)" fill="#4aa9fc"/>
  </g>
</svg>
