<svg xmlns="http://www.w3.org/2000/svg" width="98.326" height="125.821" viewBox="0 0 98.326 125.821">
  <g id="ui" transform="translate(-55.941)">
    <path id="Tracé_51" data-name="Tracé 51" d="M154.072,72.781a142.719,142.719,0,0,0-6.109-31.519,1.844,1.844,0,0,0-1.618-1.31q-2.669-.215-5.373-.4c.113-5.043-.456-19.343-9.653-29.381C125.134,3.422,116.315,0,105.1,0,92.82,0,83.442,4.086,77.231,12.146a1.843,1.843,0,0,0,2.92,2.25C85.627,7.29,94.023,3.686,105.1,3.686c10.124,0,18.024,3.014,23.48,8.958,8.132,8.86,8.753,21.975,8.693,26.664q-4.265-.265-8.579-.463c-.009-5.015-1.144-14.667-6.516-20.454-3.811-4.106-9.4-6.1-17.079-6.1s-13.268,2-17.079,6.1c-5.368,5.784-6.506,15.405-6.515,20.4-3.267.144-6.147.3-8.582.459a47.264,47.264,0,0,1,3.1-17.558,1.843,1.843,0,0,0-3.417-1.382A50.526,50.526,0,0,0,69.239,39.5c-3.444.253-5.357.446-5.415.452a1.843,1.843,0,0,0-1.578,1.306,142.718,142.718,0,0,0-6.109,31.518c-1,15.481,1.839,27.824,8.444,36.687,8.087,10.851,21.721,16.353,40.523,16.353s32.436-5.5,40.522-16.353c6.6-8.863,9.446-21.207,8.445-36.687ZM67.538,107.265c-6.067-8.142-8.665-19.664-7.722-34.246a116.6,116.6,0,0,1,2.152-15.657c7.288,1,13.223,6.279,16.431,14.7C82.494,82.81,81.81,99.375,71,111.174a31.363,31.363,0,0,1-3.458-3.909Zm75.133,0a31.381,31.381,0,0,1-3.477,3.926,35.966,35.966,0,0,1-5.507-7.944,1.843,1.843,0,1,0-3.283,1.676,39.642,39.642,0,0,0,5.984,8.659c-7.5,5.68-17.973,8.552-31.284,8.552s-23.81-2.879-31.308-8.571a41.01,41.01,0,0,0,9.879-20.2,42.526,42.526,0,0,0-1.831-22.614c-3.674-9.645-10.561-15.731-19.095-17q1.13-4.937,2.678-10.243c4.491-.4,20.956-1.7,43.468-1.508a1.843,1.843,0,0,0,.031-3.686c-8.986-.075-17.018.085-23.728.331.033-4.367,1.02-12.888,5.529-17.747,3.075-3.313,7.778-4.923,14.377-4.923s11.3,1.611,14.377,4.924c4.511,4.86,5.5,13.407,5.53,17.792q-3.285-.126-6.581-.214a1.843,1.843,0,0,0-.1,3.685c8.922.232,17.814.691,26.452,1.365q1.547,5.3,2.671,10.216a22.566,22.566,0,0,0-15.2,9.627c-6.326,8.764-8.221,21.624-4.944,33.56a1.843,1.843,0,1,0,3.555-.976c-2.943-10.721-1.225-22.664,4.378-30.426a18.98,18.98,0,0,1,12.993-8.171,116.559,116.559,0,0,1,2.154,15.664c.944,14.583-1.654,26.1-7.722,34.247Z" transform="translate(0)" fill="#4aa9fc"/>
    <path id="Tracé_52" data-name="Tracé 52" d="M232.343,285.45a1.843,1.843,0,0,0,1.843-1.843V276.04a2.58,2.58,0,1,1,5.161,0,1.843,1.843,0,1,0,3.686,0,6.266,6.266,0,1,0-12.533,0v7.567A1.843,1.843,0,0,0,232.343,285.45Z" transform="translate(-131.662 -203.478)" fill="#4aa9fc"/>
    <path id="Tracé_53" data-name="Tracé 53" d="M243.033,319.651a1.843,1.843,0,0,0-3.686,0v7.365a2.58,2.58,0,1,1-5.161,0,1.843,1.843,0,0,0-3.686,0,6.266,6.266,0,1,0,12.533,0Z" transform="translate(-131.662 -239.708)" fill="#4aa9fc"/>
    <path id="Tracé_54" data-name="Tracé 54" d="M196.343,264.886a1.843,1.843,0,0,0,1.843-1.843,11.418,11.418,0,0,1,2.773-7.454,1.843,1.843,0,0,0-2.791-2.408,15.106,15.106,0,0,0-3.668,9.862A1.843,1.843,0,0,0,196.343,264.886Z" transform="translate(-104.509 -190.481)" fill="#4aa9fc"/>
    <path id="Tracé_55" data-name="Tracé 55" d="M241.277,233.77a15.153,15.153,0,0,0-3.364.377,1.843,1.843,0,1,0,.82,3.594A11.434,11.434,0,0,1,252.7,248.884v7.373a1.843,1.843,0,0,0,3.686,0v-7.373A15.131,15.131,0,0,0,241.277,233.77Z" transform="translate(-136.172 -176.322)" fill="#4aa9fc"/>
    <path id="Tracé_56" data-name="Tracé 56" d="M288.365,347.779a1.843,1.843,0,0,0-1.843,1.843,11.36,11.36,0,0,1-4.485,9.071,1.843,1.843,0,1,0,2.244,2.924,15.019,15.019,0,0,0,5.927-12,1.844,1.844,0,0,0-1.843-1.843Z" transform="translate(-169.99 -262.314)" fill="#4aa9fc"/>
    <path id="Tracé_57" data-name="Tracé 57" d="M209.613,361.05a11.44,11.44,0,0,1-11.427-11.428,1.843,1.843,0,0,0-3.686,0,15.131,15.131,0,0,0,15.113,15.114,1.843,1.843,0,0,0,0-3.686Z" transform="translate(-104.509 -262.314)" fill="#4aa9fc"/>
    <ellipse id="Ellipse_50" data-name="Ellipse 50" cx="1.843" cy="1.843" rx="1.843" ry="1.843" transform="translate(138.174 75.034) rotate(-0.516)" fill="#4aa9fc"/>
    <ellipse id="Ellipse_51" data-name="Ellipse 51" cx="1.843" cy="1.843" rx="1.843" ry="1.843" transform="translate(138.178 87.567) rotate(-0.516)" fill="#4aa9fc"/>
    <ellipse id="Ellipse_52" data-name="Ellipse 52" cx="1.843" cy="1.843" rx="1.843" ry="1.843" transform="translate(68.38 75.06) rotate(-0.516)" fill="#4aa9fc"/>
    <ellipse id="Ellipse_53" data-name="Ellipse 53" cx="1.843" cy="1.843" rx="1.843" ry="1.843" transform="translate(68.384 87.594) rotate(-0.516)" fill="#4aa9fc"/>
  </g>
</svg>
