<svg xmlns="http://www.w3.org/2000/svg" width="129" height="129" viewBox="0 0 129 129">
  <g id="cloud-computing" transform="translate(0)">
    <path id="Tracé_43" data-name="Tracé 43" d="M177.446,26.362c-.652,0-1.307.023-1.959.068a41.316,41.316,0,0,0-72.765-8.26,1.89,1.89,0,1,0,3.129,2.12,37.537,37.537,0,0,1,66.577,8.777,1.892,1.892,0,0,0,2.016,1.259,24.743,24.743,0,0,1,3-.183A24.4,24.4,0,0,1,195.525,70.9a1.89,1.89,0,1,0,2.8,2.534,28.183,28.183,0,0,0-20.882-47.075Z" transform="translate(-76.597)" fill="#4aa9fc"/>
    <path id="Tracé_44" data-name="Tracé 44" d="M99.187,467.666a27.16,27.16,0,0,1-11.966,3.061,5.672,5.672,0,1,0,.022,3.782,30.954,30.954,0,0,0,13.751-3.523,1.89,1.89,0,0,0-1.807-3.32Zm-17.3,6.875a1.893,1.893,0,1,1,1.889-1.893A1.893,1.893,0,0,1,81.887,474.541Z" transform="translate(-57.015 -349.32)" fill="#4aa9fc"/>
    <path id="Tracé_45" data-name="Tracé 45" d="M114.366,168.516a5.679,5.679,0,0,0-5.4,3.937c-8.8.78-15.847-.779-19.945-4.434a10.6,10.6,0,0,1-3.551-6.485c2.685-.144,5.382-.325,8.062-.549a1.89,1.89,0,0,0,1.722-1.681q.173-1.606.284-3.135h5.308a28.189,28.189,0,0,0,13.243-3.306,1.89,1.89,0,0,0-1.781-3.333,24.394,24.394,0,0,1-11.461,2.86h-5.1a83.087,83.087,0,0,0-.494-13.107,1.89,1.89,0,0,0-1.715-1.622c-2.9-.241-5.939-.444-9.045-.6a1.89,1.89,0,1,0-.192,3.774c2.515.128,4.988.285,7.372.469a90.637,90.637,0,0,1-.017,16.041c-23.52,1.814-47.882.412-54.213-.014a90.945,90.945,0,0,1-.017-16.013c4.816-.326,20.186-1.227,37.606-.823a1.89,1.89,0,1,0,.088-3.778c-21.168-.492-39.369.93-39.551.945a1.89,1.89,0,0,0-1.722,1.623,83.107,83.107,0,0,0-.494,13.107H22.306a18.548,18.548,0,0,1-1.245-37.053,1.89,1.89,0,0,0,1.764-1.822A37.408,37.408,0,0,1,25.5,100.788,1.89,1.89,0,0,0,22,99.378a41.107,41.107,0,0,0-2.861,12.364,22.329,22.329,0,0,0,3.17,44.428H33.553q.112,1.526.284,3.135a1.89,1.89,0,0,0,1.729,1.681c.093.007,3.106.242,8.064.486a10.6,10.6,0,0,1-3.56,6.546c-4.1,3.656-11.145,5.214-19.945,4.434a5.673,5.673,0,1,0-.111,3.783q2.229.187,4.33.187c7.781,0,14.135-1.92,18.242-5.585a14.438,14.438,0,0,0,4.832-9.2c2.673.109,5.709.21,9.013.281-.378,13.588-4.943,21.116-7.711,24.456a1.89,1.89,0,1,0,2.91,2.412c6.845-8.259,8.367-19.68,8.577-26.8,1.871.025,3.809.039,5.8.039q1.423,0,2.881-.01c.169,5.458,1.145,14.109,5.128,21.593a27.756,27.756,0,0,0,9.626,10.641,30.181,30.181,0,0,0,15.224,4.389,5.672,5.672,0,1,0,.022-3.782c-9.912-.409-17.152-4.785-21.536-13.023-3.62-6.8-4.523-14.777-4.685-19.862,2.946-.048,5.966-.132,9.017-.259a14.435,14.435,0,0,0,4.823,9.124c4.107,3.665,10.46,5.585,18.242,5.585q2.1,0,4.33-.187a5.669,5.669,0,1,0,5.286-7.72Zm-99.638,7.565a1.893,1.893,0,1,1,1.889-1.893A1.893,1.893,0,0,1,14.728,176.081Zm89.494,18.807a1.893,1.893,0,1,1-1.889,1.892A1.893,1.893,0,0,1,104.222,194.888Zm10.144-18.807a1.893,1.893,0,1,1,1.889-1.893A1.893,1.893,0,0,1,114.366,176.081Z" transform="translate(0 -73.453)" fill="#4aa9fc"/>
    <path id="Tracé_46" data-name="Tracé 46" d="M159.244,153.809v-16.1a1.89,1.89,0,1,0-3.779,0v16.1a1.89,1.89,0,1,0,3.779,0Z" transform="translate(-116.295 -101.6)" fill="#4aa9fc"/>
    <path id="Tracé_47" data-name="Tracé 47" d="M197.558,149.606v-7.693a6.092,6.092,0,0,0-12.185,0v7.693a6.092,6.092,0,0,0,12.185,0Zm-8.405,0v-7.693a2.313,2.313,0,0,1,4.626,0v7.693a2.313,2.313,0,0,1-4.626,0Z" transform="translate(-138.668 -101.6)" fill="#4aa9fc"/>
    <path id="Tracé_48" data-name="Tracé 48" d="M314.638,156a6.1,6.1,0,0,0,6.092-6.092v-7.693a6.092,6.092,0,0,0-12.185,0V149.9A6.1,6.1,0,0,0,314.638,156Zm-2.313-13.785a2.313,2.313,0,0,1,4.626,0V149.9a2.313,2.313,0,0,1-4.626,0Z" transform="translate(-230.806 -101.823)" fill="#4aa9fc"/>
    <path id="Tracé_49" data-name="Tracé 49" d="M252.422,154.107v-16.1a1.89,1.89,0,1,0-3.779,0v16.1a1.89,1.89,0,0,0,3.779,0Z" transform="translate(-185.997 -101.823)" fill="#4aa9fc"/>
    <path id="Tracé_50" data-name="Tracé 50" d="M282.416,154.107v-16.1a1.89,1.89,0,1,0-3.779,0v16.1a1.89,1.89,0,1,0,3.779,0Z" transform="translate(-208.433 -101.823)" fill="#4aa9fc"/>
    <ellipse id="Ellipse_47" data-name="Ellipse 47" cx="1.89" cy="1.89" rx="1.89" ry="1.89" transform="translate(62.636 74.008) rotate(-0.516)" fill="#4aa9fc"/>
    <circle id="Ellipse_48" data-name="Ellipse 48" cx="1.89" cy="1.89" r="1.89" transform="translate(48.55 73.982)" fill="#4aa9fc"/>
    <circle id="Ellipse_49" data-name="Ellipse 49" cx="1.89" cy="1.89" r="1.89" transform="translate(76.764 73.982)" fill="#4aa9fc"/>
  </g>
</svg>
