<svg xmlns="http://www.w3.org/2000/svg" width="1891" height="1891" viewBox="0 0 1891 1891">
  <g id="Groupe_17" data-name="Groupe 17" transform="translate(-693)">
    <g id="page_1" data-name="page 1" transform="translate(256 239)">
      <circle id="Ellipse_5" data-name="Ellipse 5" cx="737.5" cy="737.5" r="737.5" transform="translate(649 -61)" fill="#6bbeff" opacity="0.21"/>
      <circle id="Ellipse_2" data-name="Ellipse 2" cx="737.5" cy="737.5" r="737.5" transform="translate(649 -61)" fill="#fbfcff"/>
      <circle id="Ellipse_3" data-name="Ellipse 3" cx="945.5" cy="945.5" r="945.5" transform="translate(437 -239)" fill="rgba(251,252,255,0.58)"/>
      <circle id="Ellipse_1" data-name="Ellipse 1" cx="494" cy="494" r="494" transform="translate(893 183)" fill="#6bbeff" opacity="0.06"/>
      <circle id="Ellipse_4" data-name="Ellipse 4" cx="494" cy="494" r="494" transform="translate(893 183)" fill="#fff"/>
      <circle id="Ellipse_6" data-name="Ellipse 6" cx="220.5" cy="220.5" r="220.5" transform="translate(1167 456)" fill="#fbfbff"/>
      <circle id="Ellipse_8" data-name="Ellipse 8" cx="12" cy="12" r="12" transform="translate(1226 312)" fill="#a1d3fc"/>
      <circle id="Ellipse_9" data-name="Ellipse 9" cx="12" cy="12" r="12" transform="translate(954 645)" fill="#a1d3fc"/>
      <circle id="Ellipse_7" data-name="Ellipse 7" cx="6" cy="6" r="6" transform="translate(1232 318)" fill="#4aa9fc"/>
      <circle id="Ellipse_10" data-name="Ellipse 10" cx="6" cy="6" r="6" transform="translate(960 651)" fill="#4aa9fc"/>
      <g id="Groupe_2" data-name="Groupe 2" transform="translate(120 -46.937)">
        <circle id="Ellipse_12" data-name="Ellipse 12" cx="73.5" cy="73.5" r="73.5" transform="translate(852 922.937)" fill="#4aa9fc" opacity="0.59"/>
        <g id="Ellipse_11" data-name="Ellipse 11" transform="translate(852 922.937)" fill="#4aa9fc" stroke="rgba(255,255,255,0.7)" stroke-width="4">
          <circle cx="73.5" cy="73.5" r="73.5" stroke="none"/>
          <circle cx="73.5" cy="73.5" r="71.5" fill="none"/>
        </g>
      </g>
    </g>
  </g>
</svg>
