<svg xmlns="http://www.w3.org/2000/svg" xmlns:xlink="http://www.w3.org/1999/xlink" width="440.947" height="559.194" viewBox="0 0 440.947 559.194">
  <defs>
    <clipPath id="clip-path">
      <path id="Tracé_86" data-name="Tracé 86" d="M205.093,169.768s15.959,34.061,15.959,35.859-14.161,9.5-16.858,11.119a66.048,66.048,0,0,1-6.444,3.222l1.6,15.854s24.381-5.559,34.6-11.119,9.86-11.823,7.493-21.159-18.1-45.345-18.1-45.345Z" transform="translate(-197.75 -158.2)" fill="#fff" stroke="#263238" stroke-linecap="round" stroke-linejoin="round" stroke-width="1"/>
    </clipPath>
    <clipPath id="clip-path-2">
      <path id="Tracé_90" data-name="Tracé 90" d="M129.839,160.9s-11.658,42.662-11.988,50.2,23.122,22.4,23.976,23.3-1.334-25.924-1.334-25.924l7.972-38.961Z" transform="translate(-117.848 -160.9)" fill="#fff" stroke="#263238" stroke-linecap="round" stroke-linejoin="round" stroke-width="1"/>
    </clipPath>
    <clipPath id="clip-path-3">
      <path id="Tracé_109" data-name="Tracé 109" d="M151.018,127.007s4.66,16.484,13.487,26.179,11.988,11.988,16.678,11.284,9.68-6.8,16.663-19.481,7.493-22.478,8.077-23.3-1.5-18.821-11.479-26.539-21.159-11.1-30.839-2.682S147.8,114.644,151.018,127.007Z" transform="translate(-150.153 -87.547)" fill="#fff" stroke="#263238" stroke-linecap="round" stroke-linejoin="round" stroke-width="1"/>
    </clipPath>
  </defs>
  <g id="Asset_1" data-name="Asset 1" transform="translate(-21.55 0)">
    <g id="Layer_2" data-name="Layer 2" transform="translate(22.05 0.5)">
      <g id="Character">
        <rect id="Rectangle_81" data-name="Rectangle 81" width="164.161" height="179.116" rx="6.03" transform="translate(275.785 0)" stroke-width="1" stroke="#263238" stroke-linecap="round" stroke-linejoin="round" fill="#fff"/>
        <path id="Tracé_72" data-name="Tracé 72" d="M215.126.5H361.2a8.991,8.991,0,0,1,8.991,8.991v9.381H206.09V9.536A8.991,8.991,0,0,1,215.126.5Z" transform="translate(69.695 -0.5)" fill="#1c3357" stroke="#263238" stroke-linecap="round" stroke-linejoin="round" stroke-width="1"/>
        <line id="Ligne_1" data-name="Ligne 1" x2="66.054" transform="translate(284.731 95.635)" fill="none" stroke="#263238" stroke-linecap="round" stroke-linejoin="round" stroke-width="1"/>
        <line id="Ligne_2" data-name="Ligne 2" x2="66.054" transform="translate(284.731 104.161)" fill="none" stroke="#263238" stroke-linecap="round" stroke-linejoin="round" stroke-width="1"/>
        <line id="Ligne_3" data-name="Ligne 3" x2="66.054" transform="translate(284.731 112.688)" fill="none" stroke="#263238" stroke-linecap="round" stroke-linejoin="round" stroke-width="1"/>
        <line id="Ligne_4" data-name="Ligne 4" x2="66.054" transform="translate(284.731 121.214)" fill="none" stroke="#263238" stroke-linecap="round" stroke-linejoin="round" stroke-width="1"/>
        <line id="Ligne_5" data-name="Ligne 5" x2="66.054" transform="translate(284.731 129.756)" fill="none" stroke="#263238" stroke-linecap="round" stroke-linejoin="round" stroke-width="1"/>
        <line id="Ligne_6" data-name="Ligne 6" x2="66.054" transform="translate(284.731 138.282)" fill="none" stroke="#263238" stroke-linecap="round" stroke-linejoin="round" stroke-width="1"/>
        <line id="Ligne_7" data-name="Ligne 7" x2="66.054" transform="translate(284.731 146.809)" fill="none" stroke="#263238" stroke-linecap="round" stroke-linejoin="round" stroke-width="1"/>
        <line id="Ligne_8" data-name="Ligne 8" x2="66.054" transform="translate(284.731 155.335)" fill="none" stroke="#263238" stroke-linecap="round" stroke-linejoin="round" stroke-width="1"/>
        <line id="Ligne_9" data-name="Ligne 9" x2="66.054" transform="translate(284.731 163.877)" fill="none" stroke="#263238" stroke-linecap="round" stroke-linejoin="round" stroke-width="1"/>
        <line id="Ligne_10" data-name="Ligne 10" x2="66.054" transform="translate(362.399 95.635)" fill="none" stroke="#263238" stroke-linecap="round" stroke-linejoin="round" stroke-width="1"/>
        <line id="Ligne_11" data-name="Ligne 11" x2="66.054" transform="translate(362.399 104.161)" fill="none" stroke="#263238" stroke-linecap="round" stroke-linejoin="round" stroke-width="1"/>
        <line id="Ligne_12" data-name="Ligne 12" x2="66.054" transform="translate(362.399 112.688)" fill="none" stroke="#263238" stroke-linecap="round" stroke-linejoin="round" stroke-width="1"/>
        <line id="Ligne_13" data-name="Ligne 13" x2="66.054" transform="translate(362.399 121.214)" fill="none" stroke="#263238" stroke-linecap="round" stroke-linejoin="round" stroke-width="1"/>
        <line id="Ligne_14" data-name="Ligne 14" x2="66.054" transform="translate(362.399 129.756)" fill="none" stroke="#263238" stroke-linecap="round" stroke-linejoin="round" stroke-width="1"/>
        <line id="Ligne_15" data-name="Ligne 15" x2="66.054" transform="translate(362.399 138.282)" fill="none" stroke="#263238" stroke-linecap="round" stroke-linejoin="round" stroke-width="1"/>
        <line id="Ligne_16" data-name="Ligne 16" x2="66.054" transform="translate(362.399 146.809)" fill="none" stroke="#263238" stroke-linecap="round" stroke-linejoin="round" stroke-width="1"/>
        <line id="Ligne_17" data-name="Ligne 17" x2="66.054" transform="translate(362.399 155.335)" fill="none" stroke="#263238" stroke-linecap="round" stroke-linejoin="round" stroke-width="1"/>
        <line id="Ligne_18" data-name="Ligne 18" x2="66.054" transform="translate(362.399 163.877)" fill="none" stroke="#263238" stroke-linecap="round" stroke-linejoin="round" stroke-width="1"/>
        <path id="Tracé_73" data-name="Tracé 73" d="M256.724,31.007a10.13,10.13,0,0,0,.509-3.132c0-3.866-3.926-4.106-7.807-4.106h-1v-.914H265.3v.914c-4.391,0-5.919,2.8-7.343,6.953l-8.931,26.823c-.674,1.993-1.244,3.477-3.357,3.477H245.5l-7.927-25.639-7.4,22.163c-.689,1.993-1.259,3.477-3.357,3.477h-.18L215.126,23.754H211.08V22.84h14.865v.914h-4.226l8.556,29.4h.345L237,33.569l-3-9.8h-4.046v-.914h14.805v.914h-4.211l8.542,29.4h.345Z" transform="translate(72.183 10.637)" fill="#60aff1"/>
        <path id="Tracé_168" data-name="Tracé 168" d="M0,0H67.972V61.439H0Z" transform="translate(360.96 24.995)" fill="#60aff1" stroke="#263238" stroke-linecap="round" stroke-width="2"/>
        <path id="Tracé_74" data-name="Tracé 74" d="M330.917,34.32a41.959,41.959,0,0,0-6.788.944c-10.325,2.248-13.022,17.068-24.7,17.068-10.34,0-11.224-13.921-26.044-15.719a16.319,16.319,0,0,0-10.49,1.858v31.6h67.972Z" transform="translate(98.015 16.36)" fill="#1c3357" stroke="#263238" stroke-linecap="round" stroke-linejoin="round" stroke-width="1"/>
        <path id="Tracé_75" data-name="Tracé 75" d="M283.075,29.112a7.627,7.627,0,1,1-2.229-5.4A7.627,7.627,0,0,1,283.075,29.112Z" transform="translate(100.468 9.954)" fill="#fff" stroke="#263238" stroke-linecap="round" stroke-linejoin="round" stroke-width="1"/>
        <rect id="Rectangle_83" data-name="Rectangle 83" width="151.304" height="5.829" transform="translate(280.715 5.395)" stroke-width="1" stroke="#263238" stroke-linecap="round" stroke-linejoin="round" fill="#fff"/>
        <path id="Tracé_76" data-name="Tracé 76" d="M329.25,143.88H263.735a9.71,9.71,0,0,0-9.7,9.71v35.035a9.71,9.71,0,0,0,9.7,9.71h2.038c-2.023,4.5-5.994,11.389-12.243,15.48,0,0,13.292-.929,27.138-15.48H329.25a9.71,9.71,0,0,0,9.7-9.71V153.59A9.71,9.71,0,0,0,329.25,143.88Z" transform="translate(93.344 70.976)" fill="#1c3357" stroke="#263238" stroke-linecap="round" stroke-linejoin="round" stroke-width="1"/>
        <path id="Tracé_77" data-name="Tracé 77" d="M278,162.88a4.99,4.99,0,1,0-4.99,4.99A4.99,4.99,0,0,0,278,162.88Z" transform="translate(100.568 77.96)" fill="#fff" stroke="#263238" stroke-linecap="round" stroke-linejoin="round" stroke-width="1"/>
        <path id="Tracé_78" data-name="Tracé 78" d="M289.33,162.89a5.005,5.005,0,1,0-5.005,4.99,5.005,5.005,0,0,0,5.005-4.99Z" transform="translate(106.201 77.95)" fill="#fff" stroke="#263238" stroke-linecap="round" stroke-linejoin="round" stroke-width="1"/>
        <path id="Tracé_79" data-name="Tracé 79" d="M300.68,162.89a5.005,5.005,0,1,0-4.99,4.99A5.005,5.005,0,0,0,300.68,162.89Z" transform="translate(111.859 77.95)" fill="#fff" stroke="#263238" stroke-linecap="round" stroke-linejoin="round" stroke-width="1"/>
        <path id="Tracé_80" data-name="Tracé 80" d="M66.94,14.68H174.713a9.68,9.68,0,0,1,9.68,9.68V99.076H57.26V24.36a9.68,9.68,0,0,1,9.68-9.68Z" transform="translate(-4.498 6.569)" fill="#60aff1" stroke="#263238" stroke-linecap="round" stroke-linejoin="round" stroke-width="1"/>
        <rect id="Rectangle_84" data-name="Rectangle 84" width="127.148" height="12.018" transform="translate(52.762 93.657)" stroke-width="1" stroke="#263238" stroke-linecap="round" stroke-linejoin="round" fill="#1c3357"/>
        <rect id="Rectangle_85" data-name="Rectangle 85" width="115.505" height="3.806" transform="translate(58.577 97.763)" stroke-width="1" stroke="#263238" stroke-linecap="round" stroke-linejoin="round" fill="#fff"/>
        <circle id="Ellipse_119" data-name="Ellipse 119" cx="17.562" cy="17.562" r="17.562" transform="translate(98.767 42.033)" stroke-width="1" stroke="#1c3357" stroke-linecap="round" stroke-linejoin="round" fill="#1c3357"/>
        <path id="Tracé_81" data-name="Tracé 81" d="M94.39,32.97l18.956,10.939L94.39,54.833Z" transform="translate(14.012 15.687)" fill="#fff" stroke="#263238" stroke-linecap="round" stroke-linejoin="round" stroke-width="1"/>
        <rect id="Rectangle_86" data-name="Rectangle 86" width="129.126" height="54.441" rx="2.82" transform="translate(0 136.439)" stroke-width="1" stroke="#263238" stroke-linecap="round" stroke-linejoin="round" fill="#1c3357"/>
        <path id="Tracé_82" data-name="Tracé 82" d="M34.325,96.5l.629,1.049c-2.847,1.588-5.5,4.376-5.5,7.642a4.226,4.226,0,0,0,4.046,4.5c.42,0,.689-.21.689-.629s-.21-.554-.629-.629a2.458,2.458,0,0,1-1.8-2.637,3.417,3.417,0,0,1,3.686-3.342,3.761,3.761,0,0,1,3.746,3.9,4.72,4.72,0,0,1-4.93,4.66,5.634,5.634,0,0,1-5.994-5.844C28.212,101.37,31.134,98.313,34.325,96.5Zm12.872,0,.629,1.049c-2.847,1.588-5.5,4.376-5.5,7.642a4.226,4.226,0,0,0,4.031,4.5c.42,0,.7-.21.7-.629s-.21-.554-.629-.629a2.473,2.473,0,0,1-1.813-2.637,3.432,3.432,0,0,1,3.686-3.342,3.776,3.776,0,0,1,3.761,3.9,4.735,4.735,0,0,1-4.945,4.66,5.634,5.634,0,0,1-5.994-5.844C41.084,101.37,44.006,98.313,47.2,96.5Z" transform="translate(-18.951 47.357)" fill="#fff"/>
        <line id="Ligne_19" data-name="Ligne 19" x2="73.472" transform="translate(40.58 154.946)" fill="none" stroke="#fff" stroke-linecap="round" stroke-linejoin="round" stroke-width="1"/>
        <line id="Ligne_20" data-name="Ligne 20" x2="73.472" transform="translate(40.58 161.254)" fill="none" stroke="#fff" stroke-linecap="round" stroke-linejoin="round" stroke-width="1"/>
        <line id="Ligne_21" data-name="Ligne 21" x2="73.472" transform="translate(40.58 167.578)" fill="none" stroke="#fff" stroke-linecap="round" stroke-linejoin="round" stroke-width="1"/>
        <line id="Ligne_22" data-name="Ligne 22" x2="73.472" transform="translate(40.58 173.887)" fill="none" stroke="#fff" stroke-linecap="round" stroke-linejoin="round" stroke-width="1"/>
        <circle id="Ellipse_120" data-name="Ellipse 120" cx="27.827" cy="27.827" r="27.827" transform="matrix(0.987, -0.161, 0.161, 0.987, 64.62, 224.841)" stroke-width="1" stroke="#263238" stroke-linecap="round" stroke-linejoin="round" fill="#1c3357"/>
        <circle id="Ellipse_121" data-name="Ellipse 121" cx="23.482" cy="23.482" r="23.482" transform="translate(63.437 249.994) rotate(-48.71)" stroke-width="1" stroke="#263238" stroke-linecap="round" stroke-linejoin="round" fill="#fff"/>
        <path id="Tracé_83" data-name="Tracé 83" d="M86.5,154.55v16.978H97.994" transform="translate(10.079 76.295)" fill="none" stroke="#263238" stroke-linecap="round" stroke-linejoin="round" stroke-width="2"/>
        <path id="Tracé_84" data-name="Tracé 84" d="M205.093,169.768s15.959,34.061,15.959,35.859-14.161,9.5-16.858,11.119a66.048,66.048,0,0,1-6.444,3.222l1.6,15.854s24.381-5.559,34.6-11.119,9.86-11.823,7.493-21.159-18.1-45.345-18.1-45.345Z" transform="translate(65.538 78.115)" fill="#fff"/>
        <g id="Groupe_28" data-name="Groupe 28" transform="translate(263.288 236.315)" clip-path="url(#clip-path)">
          <path id="Tracé_85" data-name="Tracé 85" d="M230.16,224.654c10.22-5.559,9.86-11.823,7.493-21.159s-18.1-45.345-18.1-45.345L217,159.768l-.824,1.5s14.7,36.069,15.584,48.087c.6,8.077-15.659,18.147-26.4,23.976C213.362,231.157,224.181,227.905,230.16,224.654Z" transform="translate(-193.956 -158.225)" fill="#90a8fc" opacity="0.5"/>
        </g>
        <path id="Tracé_87" data-name="Tracé 87" d="M205.093,169.768s15.959,34.061,15.959,35.859-14.161,9.5-16.858,11.119a66.048,66.048,0,0,1-6.444,3.222l1.6,15.854s24.381-5.559,34.6-11.119,9.86-11.823,7.493-21.159-18.1-45.345-18.1-45.345Z" transform="translate(65.538 78.115)" fill="none" stroke="#263238" stroke-linecap="round" stroke-linejoin="round" stroke-width="1"/>
        <path id="Tracé_88" data-name="Tracé 88" d="M129.839,160.9s-11.658,42.662-11.988,50.2,23.122,22.4,23.976,23.3-1.334-25.924-1.334-25.924l7.972-38.961Z" transform="translate(25.706 79.461)" fill="#fff"/>
        <g id="Groupe_29" data-name="Groupe 29" transform="translate(143.553 240.361)" clip-path="url(#clip-path-2)">
          <path id="Tracé_89" data-name="Tracé 89" d="M135.174,164.392l-.27-1.154-5.065-2.338s-11.658,42.662-11.988,50.2,23.122,22.4,23.976,23.3c.36.36.225-3.656-.075-8.616-6.983-5.919-17.008-14.251-18.177-17.757" transform="translate(-117.848 -160.9)" fill="#90a8fc" opacity="0.5"/>
        </g>
        <path id="Tracé_91" data-name="Tracé 91" d="M129.839,160.9s-11.658,42.662-11.988,50.2,23.122,22.4,23.976,23.3-1.334-25.924-1.334-25.924l7.972-38.961Z" transform="translate(25.706 79.461)" fill="none" stroke="#263238" stroke-linecap="round" stroke-linejoin="round" stroke-width="1"/>
        <path id="Tracé_92" data-name="Tracé 92" d="M183.322,133.405s-4.5,3.237-13.262,3.6-9.186-5.994-20.08-5.919c-13.187,0-29.76,41.763-29.76,41.763s8.257,8.077,16.319,11.479a57.872,57.872,0,0,0,13.981,4.121l1.259,27.438H240.7l1.079-27.438,27.782-18.027S255.94,146.037,249.3,136.9s-17.742-5.739-21.159-3.417-13.487,2.877-17.2,2.338-14.341-3.941-14.341-3.941S190.86,126.962,183.322,133.405Z" transform="translate(26.888 64.098)" fill="#60aff1" stroke="#263238" stroke-linecap="round" stroke-linejoin="round" stroke-width="1"/>
        <line id="Ligne_23" data-name="Ligne 23" x1="0.36" y2="45.54" transform="translate(177.948 207.184)" fill="none" stroke="#263238" stroke-linecap="round" stroke-linejoin="round" stroke-width="0.5"/>
        <path id="Tracé_93" data-name="Tracé 93" d="M143.19,141.52s1.259,22.223,5.919,34.6" transform="translate(38.339 69.8)" fill="none" stroke="#263238" stroke-linecap="round" stroke-linejoin="round" stroke-width="0.5"/>
        <path id="Tracé_94" data-name="Tracé 94" d="M147.74,165.8a61.128,61.128,0,0,0,3.761,8.781" transform="translate(40.607 81.903)" fill="none" stroke="#263238" stroke-linecap="round" stroke-linejoin="round" stroke-width="0.5"/>
        <path id="Tracé_95" data-name="Tracé 95" d="M145.11,139.84a141.442,141.442,0,0,0,7.163,23.661" transform="translate(39.296 68.962)" fill="none" stroke="#263238" stroke-linecap="round" stroke-linejoin="round" stroke-width="0.5"/>
        <path id="Tracé_96" data-name="Tracé 96" d="M199.352,142.47s-4.3,17.577-8.062,25.475" transform="translate(62.317 70.273)" fill="none" stroke="#263238" stroke-linecap="round" stroke-linejoin="round" stroke-width="0.5"/>
        <line id="Ligne_24" data-name="Ligne 24" x1="0.18" y1="35.5" transform="translate(268.487 217.044)" fill="none" stroke="#263238" stroke-linecap="round" stroke-linejoin="round" stroke-width="0.5"/>
        <path id="Tracé_97" data-name="Tracé 97" d="M203.7,145.82s-3.222,22.478-11.119,34.241" transform="translate(62.96 71.943)" fill="none" stroke="#263238" stroke-linecap="round" stroke-linejoin="round" stroke-width="0.5"/>
        <path id="Tracé_98" data-name="Tracé 98" d="M199.419,165.68s-3.581,6.818-6.1,10.4" transform="translate(63.329 81.843)" fill="none" stroke="#263238" stroke-linecap="round" stroke-linejoin="round" stroke-width="0.5"/>
        <path id="Tracé_99" data-name="Tracé 99" d="M159,134.1s2.517,15.42,6.1,23.3,9.86,9.5,15.24,7.178,9.321-13.816,8.991-28.472" transform="translate(46.22 66.101)" fill="none" stroke="#263238" stroke-linecap="round" stroke-linejoin="round" stroke-width="0.5"/>
        <path id="Tracé_100" data-name="Tracé 100" d="M152.782,113.8s-3.4-5.9-6.1-2.862,2.158,10.04,4.84,12.363,4.66.9,4.5-1.6S152.782,113.8,152.782,113.8Z" transform="translate(39.686 54.121)" fill="#c6ff00" stroke="#263238" stroke-linecap="round" stroke-linejoin="round" stroke-width="1"/>
        <path id="Tracé_101" data-name="Tracé 101" d="M152.782,113.8s-3.4-5.9-6.1-2.862,2.158,10.04,4.84,12.363,4.66.9,4.5-1.6S152.782,113.8,152.782,113.8Z" transform="translate(39.686 54.121)" fill="#90a8fc"/>
        <path id="Tracé_102" data-name="Tracé 102" d="M152.782,113.8s-3.4-5.9-6.1-2.862,2.158,10.04,4.84,12.363,4.66.9,4.5-1.6S152.782,113.8,152.782,113.8Z" transform="translate(39.686 54.121)" fill="none" stroke="#263238" stroke-linecap="round" stroke-linejoin="round" stroke-width="1"/>
        <path id="Tracé_103" data-name="Tracé 103" d="M187.78,113.8s3.4-5.9,6.1-2.862-2.158,10.04-4.84,12.363-4.66.9-4.5-1.6S187.78,113.8,187.78,113.8Z" transform="translate(58.949 54.121)" fill="#c6ff00" stroke="#263238" stroke-linecap="round" stroke-linejoin="round" stroke-width="1"/>
        <path id="Tracé_104" data-name="Tracé 104" d="M187.78,113.8s3.4-5.9,6.1-2.862-2.158,10.04-4.84,12.363-4.66.9-4.5-1.6S187.78,113.8,187.78,113.8Z" transform="translate(58.949 54.121)" fill="#90a8fc"/>
        <path id="Tracé_105" data-name="Tracé 105" d="M187.78,113.8s3.4-5.9,6.1-2.862-2.158,10.04-4.84,12.363-4.66.9-4.5-1.6S187.78,113.8,187.78,113.8Z" transform="translate(58.949 54.121)" fill="none" stroke="#263238" stroke-linecap="round" stroke-linejoin="round" stroke-width="1"/>
        <path id="Tracé_106" data-name="Tracé 106" d="M161.26,131.47a191.811,191.811,0,0,0,6.444,22.583c3.237,8.062,9.336,8.062,11.838,2.877s4.121-24.576,4.121-24.576S166.864,134.692,161.26,131.47Z" transform="translate(47.347 64.79)" fill="#fff" stroke="#263238" stroke-linecap="round" stroke-linejoin="round" stroke-width="1"/>
        <path id="Tracé_107" data-name="Tracé 107" d="M151.018,127.007s4.66,16.484,13.487,26.179,11.988,11.988,16.678,11.284,9.68-6.8,16.663-19.481,7.493-22.478,8.077-23.3-1.5-18.821-11.479-26.539-21.159-11.1-30.839-2.682S147.8,114.644,151.018,127.007Z" transform="translate(41.81 42.894)" fill="#fff"/>
        <g id="Groupe_30" data-name="Groupe 30" transform="translate(191.963 130.441)" clip-path="url(#clip-path-3)">
          <path id="Tracé_108" data-name="Tracé 108" d="M194.4,95.107c-10.04-7.7-21.159-11.1-30.839-2.682s-15.764,22.238-12.542,34.6c0,0,.9,3.177,2.637,7.493a5.664,5.664,0,0,1,.225-1.633c2.143-6.788,8.467-19.93,29.76-13.906,16.888,4.78,14.82,19.63,13.247,27.558.3-.539.614-1.079.914-1.648,7-12.722,7.493-22.478,8.077-23.3S204.441,102.825,194.4,95.107Z" transform="translate(-150.154 -87.566)" fill="#90a8fc" opacity="0.5"/>
        </g>
        <path id="Tracé_110" data-name="Tracé 110" d="M151.018,127.007s4.66,16.484,13.487,26.179,11.988,11.988,16.678,11.284,9.68-6.8,16.663-19.481,7.493-22.478,8.077-23.3-1.5-18.821-11.479-26.539-21.159-11.1-30.839-2.682S147.8,114.644,151.018,127.007Z" transform="translate(41.81 42.894)" fill="none" stroke="#263238" stroke-linecap="round" stroke-linejoin="round" stroke-width="1"/>
        <path id="Tracé_111" data-name="Tracé 111" d="M172.38,119.62a73.077,73.077,0,0,0-.9,10.579c.18,3.581,1.259,4.66-.36,5.02s-3.4-2.143-3.4-2.143" transform="translate(50.567 58.882)" fill="none" stroke="#263238" stroke-linecap="round" stroke-linejoin="round" stroke-width="1"/>
        <path id="Tracé_112" data-name="Tracé 112" d="M158.86,121.54a6.354,6.354,0,0,0,7.178.18" transform="translate(46.151 59.839)" fill="none" stroke="#263238" stroke-linecap="round" stroke-linejoin="round" stroke-width="1"/>
        <path id="Tracé_113" data-name="Tracé 113" d="M174.06,121.54a6.339,6.339,0,0,0,7.163.18" transform="translate(53.728 59.839)" fill="none" stroke="#263238" stroke-linecap="round" stroke-linejoin="round" stroke-width="1"/>
        <path id="Tracé_114" data-name="Tracé 114" d="M171.39,119.354s-3.4-8.437-14.7-4.5" transform="translate(45.069 55.986)" fill="none" stroke="#263238" stroke-linecap="round" stroke-linejoin="round" stroke-width="1"/>
        <path id="Tracé_115" data-name="Tracé 115" d="M172.77,118.463s2.862-8.257,13.082-3.417" transform="translate(53.085 55.844)" fill="none" stroke="#263238" stroke-linecap="round" stroke-linejoin="round" stroke-width="1"/>
        <path id="Tracé_116" data-name="Tracé 116" d="M175.871,124.178c0,4.6-5.3,8.332-11.838,8.332s-11.823-3.731-11.823-8.332,4.93-6.548,11.464-6.548S175.871,119.5,175.871,124.178Z" transform="translate(42.836 57.89)" fill="none" stroke="#263238" stroke-linecap="round" stroke-linejoin="round" stroke-width="1"/>
        <path id="Tracé_117" data-name="Tracé 117" d="M194.011,124.178c0,4.6-5.29,8.332-11.823,8.332s-11.838-3.731-11.838-8.332,4.945-6.548,11.479-6.548S194.011,119.5,194.011,124.178Z" transform="translate(51.879 57.89)" fill="none" stroke="#263238" stroke-linecap="round" stroke-linejoin="round" stroke-width="1"/>
        <path id="Tracé_118" data-name="Tracé 118" d="M85.569,217.88,84.82,399.544a2.158,2.158,0,0,0,2.158,2.158h0a2.158,2.158,0,0,0,2.158-2.083l5.17-181.484Z" transform="translate(9.241 107.866)" fill="#fff" stroke="#263238" stroke-linecap="round" stroke-linejoin="round" stroke-width="1"/>
        <path id="Tracé_119" data-name="Tracé 119" d="M77.394,246.22,76.66,434.028A2.143,2.143,0,0,0,78.8,436.2h0a2.158,2.158,0,0,0,2.158-2.068l5.2-187.673Z" transform="translate(5.173 121.993)" fill="#fff" stroke="#263238" stroke-linecap="round" stroke-linejoin="round" stroke-width="1"/>
        <path id="Tracé_120" data-name="Tracé 120" d="M255.816,217.88l.749,181.664a2.158,2.158,0,0,1-2.158,2.158h0a2.158,2.158,0,0,1-2.158-2.083l-5.17-181.484Z" transform="translate(90.129 107.866)" fill="#fff" stroke="#263238" stroke-linecap="round" stroke-linejoin="round" stroke-width="1"/>
        <path id="Tracé_121" data-name="Tracé 121" d="M263.986,246.22l.734,187.808a2.143,2.143,0,0,1-2.143,2.158h0a2.158,2.158,0,0,1-2.158-2.068L255.25,246.46Z" transform="translate(94.202 121.993)" fill="#fff" stroke="#263238" stroke-linecap="round" stroke-linejoin="round" stroke-width="1"/>
        <path id="Tracé_122" data-name="Tracé 122" d="M134.163,251.43l-.48,166.694a1.618,1.618,0,0,0,1.379,1.783h0a1.6,1.6,0,0,0,1.364-1.708l3.3-166.574Z" transform="translate(33.595 124.59)" fill="#fff" stroke="#263238" stroke-linecap="round" stroke-linejoin="round" stroke-width="1"/>
        <path id="Tracé_123" data-name="Tracé 123" d="M205.955,247.85l.39,145.475a1.348,1.348,0,0,1-1.154,1.5h0a1.349,1.349,0,0,1-1.154-1.5L201.25,247.97Z" transform="translate(67.282 122.806)" fill="#fff" stroke="#263238" stroke-linecap="round" stroke-linejoin="round" stroke-width="1"/>
        <path id="Tracé_124" data-name="Tracé 124" d="M134.455,247.85l.39,145.475a1.348,1.348,0,0,1-1.154,1.5h0a1.349,1.349,0,0,1-1.154-1.5L129.75,247.97Z" transform="translate(31.639 122.806)" fill="#fff" stroke="#263238" stroke-linecap="round" stroke-linejoin="round" stroke-width="1"/>
        <path id="Tracé_125" data-name="Tracé 125" d="M204.219,251.43l.48,166.694a1.618,1.618,0,0,1-1.379,1.783h0a1.588,1.588,0,0,1-1.364-1.708l-3.3-166.574Z" transform="translate(65.991 124.59)" fill="#fff" stroke="#263238" stroke-linecap="round" stroke-linejoin="round" stroke-width="1"/>
        <ellipse id="Ellipse_122" data-name="Ellipse 122" cx="66.684" cy="15.24" rx="66.684" ry="15.24" transform="translate(151.544 357.214)" fill="#fff" stroke="#263238" stroke-linecap="round" stroke-linejoin="round" stroke-width="1"/>
        <path id="Tracé_126" data-name="Tracé 126" d="M147.633,336.648s-3.507,5.005-1,7.493,4.99,1.5,4.75,4-4.256,10.984-7.747,19.975,3.746,17.982,10.49,15.495,5.994-27.483,7-31.978,1.738-5.245,1.5-9.486-.509-8.736-3.746-9.246S149.132,334.91,147.633,336.648Z" transform="translate(38.107 165.171)" fill="#fff" stroke="#263238" stroke-linecap="round" stroke-linejoin="round" stroke-width="1"/>
        <path id="Tracé_127" data-name="Tracé 127" d="M158.255,362.55c-4.5-1.708-11.389-1.364-15.285-.974,1.3,5.649,6.294,9.62,11.059,7.867C156.007,368.709,157.326,366.042,158.255,362.55Z" transform="translate(38.229 179.34)" fill="#60aff1" stroke="#263238" stroke-linecap="round" stroke-linejoin="round" stroke-width="1"/>
        <path id="Tracé_128" data-name="Tracé 128" d="M140.85,329.3s7.238,12.243,9.246,15.48,8.736,2.248,9.486-2.248-2.742-16.978-2.742-16.978L141.854,329.3Z" transform="translate(37.173 161.54)" fill="#fff" stroke="#263238" stroke-linecap="round" stroke-linejoin="round" stroke-width="1"/>
        <path id="Tracé_129" data-name="Tracé 129" d="M129.776,317.957s-1.993,3.252-1,5.5,3.746,8.736,5.5,11.988,9.74,5.245,18.986,3.746,14.476-5.754,14.73-9.5-1.5-8.736-2.742-14.73-4.5-5.739-8.991-5.739S133.522,314.465,129.776,317.957Z" transform="translate(31.014 153.399)" fill="#60aff1" stroke="#263238" stroke-linecap="round" stroke-linejoin="round" stroke-width="1"/>
        <path id="Tracé_130" data-name="Tracé 130" d="M162.978,279.146c.135-6.144,3.686-9.171,3.956-13.382a53.646,53.646,0,0,0-1.349-16.648l-6.848-9.336c-19.645.255-33.746.584-33.971.659-.749.24-1.244,4.5-1.753,7.987,0,0-8.332,1.064-6.833,24.291.21,3.237,8.631,40.7,9.231,44.955,3.746,26.089,12.093,39.156,12.093,39.156s.749,3.252,10.49,2.5,19.481-7.238,19.481-7.238S162.454,301.369,162.978,279.146Z" transform="translate(24.785 118.783)" fill="#1c3357" stroke="#263238" stroke-linecap="round" stroke-linejoin="round" stroke-width="1"/>
        <path id="Tracé_131" data-name="Tracé 131" d="M126.208,243.4s-10.31,1.5-16.648,8.721-.959,11.988,11.344,10.7,26.464-13.861,27.063-14.535S135.139,239.14,126.208,243.4Z" transform="translate(20.241 119.992)" fill="#fff" stroke="#263238" stroke-linecap="round" stroke-linejoin="round" stroke-width="1"/>
        <path id="Tracé_132" data-name="Tracé 132" d="M133.2,249.041a97.658,97.658,0,0,1,19.481,3c8.482,2.5,23.467,7.492,26.973,7.492s2.488-12.992,2.488-15.48-44.955-4-50.44-4S133.2,249.041,133.2,249.041Z" transform="translate(31.563 118.917)" fill="#fff" stroke="#263238" stroke-linecap="round" stroke-linejoin="round" stroke-width="1"/>
        <path id="Tracé_133" data-name="Tracé 133" d="M167.19,242.723s-3.986,1.993-5.485,9.486S158.2,263.7,161.2,265.695s15.989,3.491,17.982,1.5,7.493-11.988,8.5-18.477S167.19,242.723,167.19,242.723Z" transform="translate(46.542 120.246)" fill="#60aff1" stroke="#263238" stroke-linecap="round" stroke-linejoin="round" stroke-width="1"/>
        <path id="Tracé_134" data-name="Tracé 134" d="M178.662,248.794a31.2,31.2,0,0,0-5.5,8.991,83.557,83.557,0,0,0-2.5,10.489,98,98,0,0,1,14,5.005c7.987,3.491,21.474,5.994,34.466,8.991s16.484,5.994,20.979,5.994,9.98-3.507,16.978-11.988,1-26.479-5.994-31.978-44.461-9.98-49.451-8.482S178.662,248.794,178.662,248.794Z" transform="translate(52.033 116.662)" fill="#1c3357" stroke="#263238" stroke-linecap="round" stroke-linejoin="round" stroke-width="1"/>
        <path id="Tracé_135" data-name="Tracé 135" d="M116.755,260.183A30.3,30.3,0,0,0,110.9,247.91c-.465.435-.914.884-1.349,1.379C104.048,255.537,107.48,260.033,116.755,260.183Z" transform="translate(20.253 122.836)" fill="#60aff1" stroke="#263238" stroke-linecap="round" stroke-linejoin="round" stroke-width="1"/>
        <path id="Tracé_136" data-name="Tracé 136" d="M152.054,258.74S146.9,313.9,136.38,322.486" transform="translate(34.944 128.234)" fill="none" stroke="#fff" stroke-linecap="round" stroke-linejoin="round" stroke-width="0.5"/>
        <path id="Tracé_137" data-name="Tracé 137" d="M149.34,293.68s-4.091,17.982-14.82,25.13" transform="translate(34.017 145.652)" fill="none" stroke="#fff" stroke-linecap="round" stroke-linejoin="round" stroke-width="0.5"/>
        <path id="Tracé_138" data-name="Tracé 138" d="M191.692,252.05s-15.974,1-5.485,7.987,29.461,11.494,29.461,11.494" transform="translate(58.004 124.899)" fill="none" stroke="#fff" stroke-linecap="round" stroke-linejoin="round" stroke-width="0.5"/>
        <path id="Tracé_139" data-name="Tracé 139" d="M363.03,251.379l-5.41-4.855-12.453-26.973a7.193,7.193,0,0,0-6.548-4.061H96.46a7.193,7.193,0,0,0-6.548,4.061l-15.54,33.626-2.562-.959v7.687l.135-.09a4.256,4.256,0,0,0,4.3,3.641H358.834a4.226,4.226,0,0,0,4.316-3.971Z" transform="translate(2.756 106.674)" fill="#263238" stroke="#263238" stroke-linecap="round" stroke-linejoin="round" stroke-width="1"/>
        <path id="Tracé_140" data-name="Tracé 140" d="M358.781,258.727H76.193a4.136,4.136,0,0,1-3.971-5.694l17.637-38.122a7.178,7.178,0,0,1,6.548-4.061H338.566a7.178,7.178,0,0,1,6.548,4.061l17.637,38.122a4.136,4.136,0,0,1-3.971,5.694Z" transform="translate(2.808 104.361)" fill="#fff" stroke="#263238" stroke-linecap="round" stroke-linejoin="round" stroke-width="1"/>
        <path id="Tracé_141" data-name="Tracé 141" d="M85.555,231.794s-6.4,4.406-2.4,5.994,49.99.4,55.58-1.2S150.725,220.2,150.725,217.8s-8.062-4.121-11.029-4.256-42.153,2.188-42.153,2.188Z" transform="translate(7.757 105.7)" fill="#90a8fc" opacity="0.5"/>
        <ellipse id="Ellipse_123" data-name="Ellipse 123" cx="16.394" cy="6.803" rx="16.394" ry="6.803" transform="translate(305.68 331.485)" fill="#90a8fc"/>
        <ellipse id="Ellipse_124" data-name="Ellipse 124" cx="58.786" cy="10.999" rx="58.786" ry="10.999" transform="translate(158.902 331.5)" fill="#90a8fc" opacity="0.5"/>
        <path id="Tracé_142" data-name="Tracé 142" d="M231.539,209.44s-1.079-4.3-4.66-2.862-3.222,10.939-2.5,16.319,5.559,2.862,5.559,2.862v-3.222s-1.8,1.5-2.7-.539-.719-11.838.18-11.658,2.7,3.237,2.7,3.237S230.6,213.216,231.539,209.44Z" transform="translate(78.577 102.085)" fill="#60aff1" stroke="#263238" stroke-linecap="round" stroke-linejoin="round" stroke-width="1"/>
        <path id="Tracé_143" data-name="Tracé 143" d="M227.25,208.87v23.572c0,2.757,6.369,5.005,14.236,5.005s14.221-2.248,14.221-5.005V208.87Z" transform="translate(80.244 103.374)" fill="#60aff1" stroke="#263238" stroke-linecap="round" stroke-linejoin="round" stroke-width="1"/>
        <path id="Tracé_144" data-name="Tracé 144" d="M255.707,210.311c0,2.4-6.369,4.331-14.221,4.331s-14.236-1.933-14.236-4.331,6.369-4.331,14.236-4.331S255.707,207.928,255.707,210.311Z" transform="translate(80.244 101.933)" fill="#fff" stroke="#263238" stroke-linecap="round" stroke-linejoin="round" stroke-width="1"/>
        <path id="Tracé_145" data-name="Tracé 145" d="M253.23,210.121c0,2.083-5.529,3.761-12.363,3.761s-12.378-1.678-12.378-3.761,5.544-3.761,12.378-3.761S253.23,208.038,253.23,210.121Z" transform="translate(80.862 102.123)" fill="#fff" stroke="#263238" stroke-linecap="round" stroke-linejoin="round" stroke-width="1"/>
        <path id="Tracé_146" data-name="Tracé 146" d="M230.38,210.924a34.046,34.046,0,0,0,19.076,0,34.046,34.046,0,0,0-19.076,0Z" transform="translate(81.804 103.718)" fill="#263238" stroke="#263238" stroke-linecap="round" stroke-linejoin="round" stroke-width="1"/>
        <path id="Tracé_147" data-name="Tracé 147" d="M83.14,216.289l.165,8.062,54.321.539V215.57Z" transform="translate(8.404 106.714)" fill="#fff" stroke="#263238" stroke-linecap="round" stroke-linejoin="round" stroke-width="1"/>
        <path id="Tracé_148" data-name="Tracé 148" d="M119.615,229.123l7.9-17.023v-5.02l-8.242,14.341Z" transform="translate(26.415 102.482)" fill="#fff" stroke="#263238" stroke-linecap="round" stroke-linejoin="round" stroke-width="1"/>
        <path id="Tracé_149" data-name="Tracé 149" d="M83.14,221.2l.165,8.062,54.321.539V220.48Z" transform="translate(8.404 109.162)" fill="#fff" stroke="#263238" stroke-linecap="round" stroke-linejoin="round" stroke-width="1"/>
        <path id="Tracé_150" data-name="Tracé 150" d="M119.615,234.038l7.9-17.038v-5.02l-8.242,14.341Z" transform="translate(26.415 104.924)" fill="#fff" stroke="#263238" stroke-linecap="round" stroke-linejoin="round" stroke-width="1"/>
        <path id="Tracé_151" data-name="Tracé 151" d="M107.11,203.688s1.259-2.5-.539-3.581-3.761,1.5-4.84,2.323-23.661,15.779-24.381,18.117,0,7.493,4.84,8.062,9.141-2.682,11.3-3.222,3-.719,3-.719l14.925-20.1Z" transform="translate(5.398 98.876)" fill="#fff" stroke="#263238" stroke-linecap="round" stroke-linejoin="round" stroke-width="1"/>
        <path id="Tracé_152" data-name="Tracé 152" d="M82.189,221.918c4.84.539,9.141-2.682,11.3-3.222s3-.719,3-.719l.539-.734-13.936-2.817a4.675,4.675,0,0,0-5.739-.539C76.63,216.239,77.349,221.439,82.189,221.918Z" transform="translate(5.398 105.505)" fill="#fff" stroke="#263238" stroke-linecap="round" stroke-linejoin="round" stroke-width="1"/>
        <path id="Tracé_153" data-name="Tracé 153" d="M81.1,219.788h41.958c13.082,0,17.023-.719,17.023-.719l8.077-16.678s-25.475,1.618-33.357,1.079a59.327,59.327,0,0,1-9.68-1.079Z" transform="translate(7.387 100.144)" fill="#fff" stroke="#263238" stroke-linecap="round" stroke-linejoin="round" stroke-width="1"/>
        <path id="Tracé_154" data-name="Tracé 154" d="M81.1,214.244l.719,3.222s34.061.18,43.022.18,15.779.36,15.779.36l-.539-4.5Z" transform="translate(7.387 105.687)" fill="#fff" stroke="#263238" stroke-linecap="round" stroke-linejoin="round" stroke-width="1"/>
        <path id="Tracé_155" data-name="Tracé 155" d="M121,223.569l7.522-17.218V202.41l-8.062,16.678Z" transform="translate(27.008 100.154)" fill="#fff" stroke="#263238" stroke-linecap="round" stroke-linejoin="round" stroke-width="1"/>
        <path id="Tracé_156" data-name="Tracé 156" d="M236.341,231.147H133.573a1.708,1.708,0,0,1-1.723-1.723h0a1.708,1.708,0,0,1,1.723-1.723H236.3a1.708,1.708,0,0,1,1.723,1.723h0A1.708,1.708,0,0,1,236.341,231.147Z" transform="translate(32.686 112.761)" fill="#fff" stroke="#263238" stroke-linecap="round" stroke-linejoin="round" stroke-width="1"/>
        <path id="Tracé_157" data-name="Tracé 157" d="M239.312,251.4H134.836a1.5,1.5,0,0,1-1.5-1.424l-5.694-68.257a1.5,1.5,0,0,1,1.5-1.678H245.067a1.5,1.5,0,0,1,1.5,1.678l-5.694,68.257A1.5,1.5,0,0,1,239.312,251.4Z" transform="translate(30.584 89.002)" fill="#fff" stroke="#263238" stroke-linecap="round" stroke-linejoin="round" stroke-width="1"/>
        <path id="Tracé_158" data-name="Tracé 158" d="M180.44,207.078c0,4.076-4.406,7.373-9.86,7.373s-9.86-3.3-9.86-7.373,4.406-7.358,9.86-7.358S180.44,203.017,180.44,207.078Z" transform="translate(47.078 98.813)" fill="#fff" stroke="#263238" stroke-linecap="round" stroke-linejoin="round" stroke-width="1"/>
        <path id="Tracé_159" data-name="Tracé 159" d="M242,172.146a8.991,8.991,0,0,0,3.087-9.456" transform="translate(87.597 80.353)" fill="none" stroke="#263238" stroke-linecap="round" stroke-linejoin="round" stroke-width="1"/>
        <path id="Tracé_160" data-name="Tracé 160" d="M236.5,221.739s9.98-5.994,6.713-12.842-14.236-11.374-14.236-22.058c0-9.2,9.785-12.6,16.154-16.289" transform="translate(81.106 84.271)" fill="none" stroke="#263238" stroke-linecap="round" stroke-linejoin="round" stroke-width="1"/>
        <path id="Tracé_161" data-name="Tracé 161" d="M241.586,212.043s5.559-3.7,5.559-9.575c0-3.941-4.226-6.519-9.785-12.857" transform="translate(85.283 93.773)" fill="none" stroke="#263238" stroke-linecap="round" stroke-linejoin="round" stroke-width="1"/>
        <path id="Tracé_162" data-name="Tracé 162" d="M235.957,189.807s-3.641-2.877-.959-8.257" transform="translate(83.615 89.755)" fill="none" stroke="#263238" stroke-linecap="round" stroke-linejoin="round" stroke-width="1"/>
        <path id="Tracé_163" data-name="Tracé 163" d="M195.322,92.649c1.783-.375,5.6-1.843,8.182-7.822a.742.742,0,1,0-1.364-.584c-2.383,5.47-5.769,6.683-7.163,6.953A17.188,17.188,0,0,0,198.9,80.361c0-10.4-9.62-18.821-21.5-18.821s-21.519,8.422-21.519,18.821a17.128,17.128,0,0,0,3.611,10.49c-2.263-.12-6.084.839-10.939,6.489a.764.764,0,0,0,.09,1.064.734.734,0,0,0,1.049-.09c6.189-7.208,10.28-5.994,11.119-5.664a22.177,22.177,0,0,0-3.926,2.742c-6.908,6.219-11.119,17.982-10.579,27.782a36.129,36.129,0,0,0,6.818,17.982,41.658,41.658,0,0,0,12.183-13.621,115.923,115.923,0,0,0,5.994-12.258c0,4.391.584,9.7,2.877,13.487a19.181,19.181,0,0,0,16.813,9.845,14.985,14.985,0,0,0,3.522-.36.719.719,0,0,0,.48-.375c5.784,1.229,11.538,1.124,12.423-.1,1.5-1.963,3.462-8.092,4.121-15.584C212.7,109.477,204.687,98.448,195.322,92.649Zm-19.825,35.2c-2.907-4.75-2.832-12.5-2.473-16.948.1-.315.18-.509.18-.509a30.555,30.555,0,0,0,12.183,23.482,22.119,22.119,0,0,0,6.638,3.1c-3.641.255-11.209-.45-16.514-9.126Z" transform="translate(39.869 29.929)" fill="#1c3357"/>
        <path id="Tracé_164" data-name="Tracé 164" d="M165.953,90.08s-1.229,9.081,10.31,17.982,22.478,5.395,22.478,5.395" transform="translate(49.668 44.156)" fill="none" stroke="#fff" stroke-linecap="round" stroke-linejoin="round" stroke-width="0.5"/>
        <path id="Tracé_165" data-name="Tracé 165" d="M167.07,88s12.168,17.7,28.936,13.067" transform="translate(50.243 43.119)" fill="none" stroke="#fff" stroke-linecap="round" stroke-linejoin="round" stroke-width="0.5"/>
        <path id="Tracé_166" data-name="Tracé 166" d="M170.338,84.543a11.733,11.733,0,0,0-12.153.929c-6.474,4.3-9.7,14.461-9.7,14.461" transform="translate(40.981 40.762)" fill="none" stroke="#fff" stroke-linecap="round" stroke-linejoin="round" stroke-width="0.5"/>
        <path id="Tracé_167" data-name="Tracé 167" d="M167.393,87.508s-5.23-1.379-8.452,1.843A20.321,20.321,0,0,0,155,94.281" transform="translate(44.226 42.728)" fill="none" stroke="#fff" stroke-linecap="round" stroke-linejoin="round" stroke-width="0.5"/>
      </g>
    </g>
  </g>
</svg>
