<svg xmlns="http://www.w3.org/2000/svg" width="29.802" height="55.123" viewBox="0 0 29.802 55.123">
  <g id="facebook" transform="translate(-22.077)">
    <path id="Tracé_20" data-name="Tracé 20" d="M50.757.011,43.609,0C35.578,0,30.388,5.325,30.388,13.566v6.255H23.2a1.124,1.124,0,0,0-1.124,1.125v9.062A1.124,1.124,0,0,0,23.2,31.132h7.187V54a1.124,1.124,0,0,0,1.124,1.124h9.377A1.124,1.124,0,0,0,42.013,54V31.132h8.4a1.124,1.124,0,0,0,1.124-1.124l0-9.062a1.125,1.125,0,0,0-1.125-1.125H42.013v-5.3c0-2.548.607-3.842,3.927-3.842l4.815,0A1.124,1.124,0,0,0,51.879,9.55V1.135A1.124,1.124,0,0,0,50.757.011Z" fill="#fff"/>
  </g>
</svg>
