<svg xmlns="http://www.w3.org/2000/svg" width="35.683" height="57.695" viewBox="0 0 35.683 57.695">
  <g id="fire" transform="translate(-18.46)">
    <g id="Groupe_15" data-name="Groupe 15" transform="translate(18.46 0)">
      <path id="Tracé_21" data-name="Tracé 21" d="M58.529,37.538a25.516,25.516,0,0,0-2.223-8.065,31,31,0,0,0-4.227-6.741c-.483-.593-.974-1.16-1.227-1.422l-.584-.638c-.142-.163-.262-.295-.381-.411l-.175-.177c-.191-.192-.388-.391-.551-.59-.013-.016-.026-.032-.041-.047-.079-.087-.165-.174-.26-.271a5.376,5.376,0,0,1-.39-.423l-.049-.058c-.89-.978-1.638-1.867-2.287-2.716a18.126,18.126,0,0,1-1.742-2.689,12.366,12.366,0,0,1-1.147-3.257,19.945,19.945,0,0,1-.4-3.655,30.828,30.828,0,0,1,.113-3.327c.055-.643.117-1.212.178-1.714a1.193,1.193,0,0,0-1.486-1.3,13.447,13.447,0,0,0-1.729.584,15.764,15.764,0,0,0-3.546,2.046,16.75,16.75,0,0,0-3.79,4.054A17.688,17.688,0,0,0,29.924,13.3a20.887,20.887,0,0,0,.155,8.26,25.159,25.159,0,0,0,3.2,7.795,28.164,28.164,0,0,0,2.342,3.258c.228.283.855,1.015.862,1.024l.25.287c.175.2.3.348.428.5s.215.256.324.372l.018.019c1.192,1.426,2.033,2.473,2.727,3.4.767,1.02,1.441,2.008,2.061,3.021a17.1,17.1,0,0,1,1.483,2.972,13.957,13.957,0,0,1,.779,3.468,20.576,20.576,0,0,1,0,3.7c-.11,1.274-.308,2.436-.464,3.286-.117.582-.231,1.119-.336,1.583a1.192,1.192,0,0,0,1.164,1.454,1.227,1.227,0,0,0,.228-.021,12.548,12.548,0,0,0,1.632-.434,15.913,15.913,0,0,0,3.65-1.748,16.842,16.842,0,0,0,4.087-3.669A18.437,18.437,0,0,0,57.77,45.64,20.893,20.893,0,0,0,58.529,37.538Z" transform="translate(-22.952 0)" fill="#fff"/>
      <path id="Tracé_22" data-name="Tracé 22" d="M30.659,66.307a14.142,14.142,0,0,0-1.928-3.077c-.2-.241-.435-.519-.551-.639l-.275-.3c-.072-.08-.123-.137-.178-.192l-.075-.076c-.087-.087-.174-.176-.248-.264-.013-.016-.027-.032-.041-.047l-.1-.107c-.06-.062-.119-.122-.17-.185-.013-.016-.027-.032-.041-.048-.393-.431-.731-.832-1.028-1.22a8.621,8.621,0,0,1-.8-1.235,5.667,5.667,0,0,1-.523-1.488,9.167,9.167,0,0,1-.183-1.666,13.172,13.172,0,0,1,.037-1.319,1.192,1.192,0,0,0-1.7-1.161,7.51,7.51,0,0,0-1.29.789A7.647,7.647,0,0,0,19.83,55.92a8.056,8.056,0,0,0-1.214,3,9.534,9.534,0,0,0,.069,3.773,11.5,11.5,0,0,0,1.463,3.565,12.954,12.954,0,0,0,1.058,1.474c.1.123.315.373.411.485l0,0,.106.12c.084.095.143.165.2.236s.093.112.133.154l.018.02c.368.439.842,1.014,1.247,1.554.352.467.659.918.94,1.378a7.715,7.715,0,0,1,.676,1.353,6.4,6.4,0,0,1,.357,1.589,9.4,9.4,0,0,1,0,1.678c-.032.376-.085.773-.16,1.214a1.193,1.193,0,0,0,1.623,1.306,7.484,7.484,0,0,0,1.213-.632,7.682,7.682,0,0,0,1.87-1.677,8.418,8.418,0,0,0,1.485-2.821,9.7,9.7,0,0,0,.348-3.7A11.689,11.689,0,0,0,30.659,66.307Z" transform="translate(-18.46 -21.467)" fill="#fff"/>
    </g>
  </g>
</svg>
