<svg id="linkedin" xmlns="http://www.w3.org/2000/svg" width="55.123" height="55.123" viewBox="0 0 55.123 55.123">
  <path id="Tracé_23" data-name="Tracé 23" d="M44.1,45.3v0h.014V25.082c0-9.89-2.129-17.508-13.691-17.508a12,12,0,0,0-10.811,5.942h-.161V8.5H8.489V45.3H19.9V27.076c0-4.8.91-9.438,6.851-9.438,5.855,0,5.942,5.476,5.942,9.745V45.3Z" transform="translate(11.008 9.822)" fill="#fff"/>
  <path id="Tracé_24" data-name="Tracé 24" d="M.4,7.977H11.825v36.8H.4Z" transform="translate(0.514 10.345)" fill="#fff"/>
  <path id="Tracé_25" data-name="Tracé 25" d="M6.619,0a6.65,6.65,0,1,0,6.619,6.619A6.621,6.621,0,0,0,6.619,0Z" fill="#fff"/>
</svg>
