<svg xmlns="http://www.w3.org/2000/svg" width="339" height="71.428" viewBox="0 0 339 71.428">
  <g id="Groupe_36" data-name="Groupe 36" transform="translate(-406 -46.923)">
    <text id="Les_plus_rapides_." data-name="Les plus rapides ." transform="translate(490 95)" font-size="33" font-family="SegoeUI-Semibold, Segoe UI" font-weight="600"><tspan x="0" y="0">Les plus rapides .</tspan></text>
    <g id="_3d" data-name="3d" transform="translate(406 46.923)">
      <path id="Tracé_3" data-name="Tracé 3" d="M75.916,268.117a1.066,1.066,0,0,0,1.066-1.066v-7.345a1.066,1.066,0,1,0-2.132,0v7.345A1.066,1.066,0,0,0,75.916,268.117Z" transform="translate(-64.213 -222.399)" fill="#4aa9fc"/>
      <path id="Tracé_4" data-name="Tracé 4" d="M75.916,176.552a1.066,1.066,0,0,0,1.066-1.066v-2.951l2.527-1.525a1.066,1.066,0,1,0-1.1-1.825l-3.042,1.836a1.066,1.066,0,0,0-.515.912v3.553A1.066,1.066,0,0,0,75.916,176.552Z" transform="translate(-64.213 -145.525)" fill="#4aa9fc"/>
      <path id="Tracé_5" data-name="Tracé 5" d="M140.607,122.617a1.061,1.061,0,0,0,.55-.153l6.152-3.713a1.066,1.066,0,0,0-1.1-1.825l-6.152,3.713a1.066,1.066,0,0,0,.552,1.979Z" transform="translate(-119.709 -100.693)" fill="#4aa9fc"/>
      <path id="Tracé_6" data-name="Tracé 6" d="M312.316,118.8l6.1,3.711a1.066,1.066,0,0,0,1.108-1.821l-6.1-3.711a1.066,1.066,0,0,0-1.108,1.821Z" transform="translate(-267.492 -100.74)" fill="#4aa9fc"/>
      <path id="Tracé_7" data-name="Tracé 7" d="M398.171,171.03l2.523,1.535v2.954a1.066,1.066,0,0,0,2.132,0v-3.553a1.066,1.066,0,0,0-.512-.911l-3.035-1.846a1.066,1.066,0,1,0-1.108,1.821Z" transform="translate(-341.146 -145.544)" fill="#4aa9fc"/>
      <path id="Tracé_8" data-name="Tracé 8" d="M420.085,258.67a1.066,1.066,0,0,0-1.066,1.066v7.337a1.066,1.066,0,1,0,2.132,0v-7.337A1.066,1.066,0,0,0,420.085,258.67Z" transform="translate(-359.47 -222.425)" fill="#4aa9fc"/>
      <path id="Tracé_9" data-name="Tracé 9" d="M318.416,426.179l-6.1,3.711a1.066,1.066,0,1,0,1.108,1.821l6.1-3.711a1.066,1.066,0,0,0-1.108-1.821Z" transform="translate(-267.492 -365.995)" fill="#4aa9fc"/>
      <path id="Tracé_10" data-name="Tracé 10" d="M232.7,478.4l-2.484,1.511-2.489-1.5a1.066,1.066,0,0,0-1.1,1.825l3.042,1.836a1.066,1.066,0,0,0,1.1,0l3.035-1.846A1.066,1.066,0,0,0,232.7,478.4Z" transform="translate(-193.979 -410.798)" fill="#4aa9fc"/>
      <path id="Tracé_11" data-name="Tracé 11" d="M147.307,429.928l-6.152-3.713a1.066,1.066,0,0,0-1.1,1.825l6.152,3.713a1.066,1.066,0,1,0,1.1-1.825Z" transform="translate(-119.708 -366.028)" fill="#4aa9fc"/>
      <path id="Tracé_12" data-name="Tracé 12" d="M248.5,182.9a1.066,1.066,0,0,0,1.066-1.066v-.819a1.066,1.066,0,0,0-2.132,0v.819A1.066,1.066,0,0,0,248.5,182.9Z" transform="translate(-212.271 -154.892)" fill="#4aa9fc"/>
      <path id="Tracé_13" data-name="Tracé 13" d="M248.5,225.908a1.066,1.066,0,0,0,1.066-1.066v-.819a1.066,1.066,0,1,0-2.132,0v.819A1.066,1.066,0,0,0,248.5,225.908Z" transform="translate(-212.271 -191.788)" fill="#4aa9fc"/>
      <path id="Tracé_14" data-name="Tracé 14" d="M68,59.485a4.442,4.442,0,0,0-2.968,1.134L61.68,58.7V55.612a1.066,1.066,0,0,0-2.132,0v1.875l-3.84-2.194c0-.024,0-.049,0-.073V33.994A2.126,2.126,0,0,0,54.7,32.188L37.326,21.622,37.3,21.6V17.113l1.428.868a1.066,1.066,0,0,0,1.108-1.821L37.3,14.617v-2.2a4.46,4.46,0,1,0-2.132,0v2.21l-2.515,1.518a1.066,1.066,0,1,0,1.1,1.825l1.413-.853V21.6l-.029.016L17.627,32.187A2.125,2.125,0,0,0,16.606,34v6.561a1.066,1.066,0,0,0,2.132,0V35.293l16.426,9.915V65.123L18.949,55.335c-.009-.018-.017-.037-.028-.055a1.068,1.068,0,0,0-.184-.236V45.1a1.066,1.066,0,0,0-2.132,0V55.218c0,.052,0,.1.006.154l-3.843,2.2V55.625a1.066,1.066,0,0,0-2.132,0v3.161L7.428,60.619a4.452,4.452,0,1,0,1.21,1.764l3.243-1.853,2.313,1.4A1.066,1.066,0,1,0,15.3,60.1L14,59.32l3.814-2.179L35.135,67.6a2.133,2.133,0,0,0,.335.163,1.064,1.064,0,0,0,1.521,0,2.117,2.117,0,0,0,.334-.164l6.861-4.173A1.066,1.066,0,0,0,43.079,61.6L37.3,65.116V45.206L53.579,35.3V55.21l-6.578,4a1.066,1.066,0,1,0,1.108,1.821L54.574,57.1l3.807,2.175-1.356.825a1.066,1.066,0,1,0,1.108,1.821L60.5,60.484l3.325,1.9A4.46,4.46,0,1,0,68,59.485ZM4.46,66.275a2.329,2.329,0,1,1,2.329-2.329A2.331,2.331,0,0,1,4.46,66.275ZM33.9,8.088a2.329,2.329,0,1,1,2.329,2.329A2.331,2.331,0,0,1,33.9,8.088Zm1.263,16v1.122a1.066,1.066,0,0,0,2.132,0V24.1l15.3,9.306L37.3,42.711V41.463a1.066,1.066,0,0,0-2.132,0v1.256L19.735,33.4ZM68,66.275a2.329,2.329,0,1,1,2.329-2.329A2.331,2.331,0,0,1,68,66.275Z" transform="translate(0 -3.628)" fill="#4aa9fc"/>
    </g>
  </g>
</svg>
