<svg xmlns="http://www.w3.org/2000/svg" width="581.452" height="120.811" viewBox="0 0 581.452 120.811">
  <g id="Groupe_35" data-name="Groupe 35" transform="translate(-142.548 -47.923)">
    <g id="_3d" data-name="3d" transform="translate(142.548 47.923)">
      <path id="Tracé_3" data-name="Tracé 3" d="M76.653,274.669a1.8,1.8,0,0,0,1.8-1.8V260.443a1.8,1.8,0,1,0-3.606,0v12.424A1.8,1.8,0,0,0,76.653,274.669Z" transform="translate(-56.859 -197.343)" fill="#4aa9fc"/>
      <path id="Tracé_4" data-name="Tracé 4" d="M76.653,181.751a1.8,1.8,0,0,0,1.8-1.8v-4.992l4.273-2.58a1.8,1.8,0,1,0-1.863-3.087L75.721,172.4a1.8,1.8,0,0,0-.871,1.543v6.009A1.8,1.8,0,0,0,76.653,181.751Z" transform="translate(-56.859 -129.273)" fill="#4aa9fc"/>
      <path id="Tracé_5" data-name="Tracé 5" d="M141.344,126.659a1.8,1.8,0,0,0,.93-.26l10.4-6.281a1.8,1.8,0,0,0-1.863-3.087l-10.4,6.281a1.8,1.8,0,0,0,.933,3.346Z" transform="translate(-105.999 -89.576)" fill="#4aa9fc"/>
      <path id="Tracé_6" data-name="Tracé 6" d="M312.67,120.17l10.318,6.276a1.8,1.8,0,0,0,1.874-3.081l-10.318-6.276a1.8,1.8,0,0,0-1.874,3.081Z" transform="translate(-236.856 -89.618)" fill="#4aa9fc"/>
      <path id="Tracé_7" data-name="Tracé 7" d="M398.525,172.4l4.268,2.6v5a1.8,1.8,0,0,0,3.605,0v-6.009a1.8,1.8,0,0,0-.866-1.54l-5.134-3.123a1.8,1.8,0,1,0-1.874,3.08Z" transform="translate(-302.075 -129.29)" fill="#4aa9fc"/>
      <path id="Tracé_8" data-name="Tracé 8" d="M420.822,258.67a1.8,1.8,0,0,0-1.8,1.8v12.409a1.8,1.8,0,1,0,3.605,0V260.473A1.8,1.8,0,0,0,420.822,258.67Z" transform="translate(-318.301 -197.366)" fill="#4aa9fc"/>
      <path id="Tracé_9" data-name="Tracé 9" d="M322.988,426.286l-10.318,6.276a1.8,1.8,0,1,0,1.874,3.081l10.318-6.276a1.8,1.8,0,0,0-1.874-3.08Z" transform="translate(-236.856 -324.494)" fill="#4aa9fc"/>
      <path id="Tracé_10" data-name="Tracé 10" d="M237.258,478.51l-4.2,2.555-4.209-2.541a1.8,1.8,0,0,0-1.863,3.087l5.145,3.105a1.8,1.8,0,0,0,1.868,0l5.134-3.123a1.8,1.8,0,0,0-1.873-3.08Z" transform="translate(-171.763 -364.165)" fill="#4aa9fc"/>
      <path id="Tracé_11" data-name="Tracé 11" d="M152.678,432.6l-10.4-6.28a1.8,1.8,0,1,0-1.863,3.087l10.405,6.28a1.8,1.8,0,1,0,1.863-3.087Z" transform="translate(-105.998 -324.522)" fill="#4aa9fc"/>
      <path id="Tracé_12" data-name="Tracé 12" d="M249.238,184.94a1.8,1.8,0,0,0,1.8-1.8v-1.385a1.8,1.8,0,0,0-3.605,0v1.385A1.8,1.8,0,0,0,249.238,184.94Z" transform="translate(-187.96 -137.568)" fill="#4aa9fc"/>
      <path id="Tracé_13" data-name="Tracé 13" d="M249.238,227.948a1.8,1.8,0,0,0,1.8-1.8v-1.384a1.8,1.8,0,1,0-3.605,0v1.384A1.8,1.8,0,0,0,249.238,227.948Z" transform="translate(-187.96 -170.238)" fill="#4aa9fc"/>
      <path id="Tracé_14" data-name="Tracé 14" d="M115.011,98.1a7.512,7.512,0,0,0-5.019,1.918l-5.668-3.239V91.552a1.8,1.8,0,1,0-3.605,0v3.171l-6.494-3.711c0-.041,0-.082,0-.123v-35.9a3.6,3.6,0,0,0-1.717-3.054L63.132,34.063l-.052-.029v-7.6L65.495,27.9a1.8,1.8,0,0,0,1.874-3.081L63.08,22.215V18.5a7.544,7.544,0,1,0-3.606,0v3.738L55.222,24.8a1.8,1.8,0,1,0,1.863,3.087l2.39-1.443V34.03l-.048.027L29.814,51.932a3.594,3.594,0,0,0-1.728,3.061v11.1a1.8,1.8,0,0,0,3.606,0v-8.9L59.475,73.957v33.682L32.049,91.084c-.015-.031-.029-.062-.047-.092a1.807,1.807,0,0,0-.311-.4V73.772a1.8,1.8,0,1,0-3.605,0V90.886c0,.087,0,.174.011.261l-6.5,3.714V91.575a1.8,1.8,0,0,0-3.606,0v5.346l-5.428,3.1a7.529,7.529,0,1,0,2.046,2.984L20.1,99.872l3.912,2.361a1.8,1.8,0,0,0,1.863-3.087l-2.191-1.322,6.451-3.686,29.3,17.684a3.607,3.607,0,0,0,.566.275,1.8,1.8,0,0,0,2.573,0,3.58,3.58,0,0,0,.566-.277l11.6-7.059a1.8,1.8,0,0,0-1.874-3.08l-9.782,5.95V73.952L90.622,57.2V90.872L79.5,97.64a1.8,1.8,0,1,0,1.874,3.081L92.3,94.069l6.439,3.679-2.294,1.4a1.8,1.8,0,1,0,1.874,3.081l4-2.432,5.624,3.213a7.544,7.544,0,1,0,7.066-4.9ZM7.544,109.587a3.939,3.939,0,1,1,3.939-3.939,3.943,3.943,0,0,1-3.939,3.939ZM57.339,11.172a3.939,3.939,0,1,1,3.939,3.939A3.943,3.943,0,0,1,57.339,11.172Zm2.136,27.067v1.9a1.8,1.8,0,0,0,3.606,0V38.252l25.876,15.74L63.081,69.732V67.621a1.8,1.8,0,1,0-3.606,0v2.124l-26.1-15.753Zm55.536,71.348a3.939,3.939,0,1,1,3.939-3.939A3.943,3.943,0,0,1,115.011,109.587Z" transform="translate(0 -3.628)" fill="#4aa9fc"/>
    </g>
    <text id="Les_plus_rapides_." data-name="Les plus rapides ." transform="translate(284 131)" font-size="57" font-family="SegoeUI-Semibold, Segoe UI" font-weight="600"><tspan x="0" y="0">Les plus rapides .</tspan></text>
  </g>
</svg>
