<svg xmlns="http://www.w3.org/2000/svg" width="67.692" height="55" viewBox="0 0 67.692 55">
  <g id="twitter" transform="translate(0 -48)">
    <g id="Groupe_14" data-name="Groupe 14" transform="translate(0 48)">
      <path id="Tracé_19" data-name="Tracé 19" d="M67.692,54.511a28.933,28.933,0,0,1-8,2.192,13.8,13.8,0,0,0,6.105-7.67A27.734,27.734,0,0,1,57,52.392,13.877,13.877,0,0,0,33,61.881a14.289,14.289,0,0,0,.322,3.165A39.28,39.28,0,0,1,4.713,50.53,13.881,13.881,0,0,0,8.978,69.078a13.7,13.7,0,0,1-6.27-1.709v.152A13.941,13.941,0,0,0,13.826,81.157a13.851,13.851,0,0,1-3.638.457,12.27,12.27,0,0,1-2.627-.237,14.01,14.01,0,0,0,12.967,9.667A27.884,27.884,0,0,1,3.321,96.963,25.992,25.992,0,0,1,0,96.772,39.069,39.069,0,0,0,21.289,103c25.537,0,39.5-21.154,39.5-39.49,0-.613-.021-1.206-.051-1.794A27.685,27.685,0,0,0,67.692,54.511Z" transform="translate(0 -48)" fill="#fff"/>
    </g>
  </g>
</svg>
